<?xml version="1.0" standalone="no"?>
<!DOCTYPE svg PUBLIC "-//W3C//DTD SVG 20010904//EN"
 "http://www.w3.org/TR/2001/REC-SVG-20010904/DTD/svg10.dtd">
<svg version="1.0" xmlns="http://www.w3.org/2000/svg"
 width="700.000000pt" height="467.000000pt" viewBox="0 0 700.000000 467.000000"
 preserveAspectRatio="xMidYMid meet">
<metadata>
Created by potrace 1.15, written by Peter Selinger 2001-2017
</metadata>
<g transform="translate(0.000000,467.000000) scale(0.100000,-0.100000)"
fill="#000000" stroke="none">
<path d="M202 4653 c-5 -10 -17 -51 -26 -92 -9 -41 -22 -83 -28 -95 -6 -11
-12 -34 -14 -51 -2 -31 -6 -46 -23 -102 -5 -17 -7 -34 -4 -37 3 -3 -2 -12 -11
-21 -22 -22 -20 -40 6 -75 19 -26 20 -33 9 -57 -7 -16 -15 -41 -17 -58 -7 -60
-36 -165 -46 -165 -5 0 -18 5 -29 10 -15 8 -19 7 -19 -4 0 -22 102 -89 112
-73 4 6 17 54 30 106 12 51 28 96 36 98 7 3 24 -5 38 -18 25 -24 26 -44 7
-124 -3 -11 -6 -31 -7 -45 0 -14 -4 -27 -7 -30 -3 -3 -9 -17 -12 -32 -6 -22
-2 -30 24 -49 17 -12 34 -18 39 -13 4 5 17 45 29 89 72 278 212 767 218 761 2
-2 -23 -102 -56 -222 -32 -121 -74 -277 -92 -348 -32 -126 -32 -130 -14 -140
11 -6 44 -34 73 -62 l54 -50 -12 -75 c-16 -104 -16 -102 -4 -106 12 -4 57 150
154 532 68 266 90 348 95 343 1 -2 -41 -179 -95 -393 -57 -228 -100 -417 -102
-455 -3 -58 -1 -65 19 -75 13 -7 32 -20 43 -30 11 -10 22 -16 23 -14 3 4 49
201 98 419 11 47 24 103 29 125 5 22 28 116 50 210 33 137 40 179 34 222 -5
41 -2 59 10 78 19 29 34 31 62 9 16 -13 16 -15 2 -10 -19 6 -23 -6 -63 -179
-12 -55 -34 -143 -48 -195 -14 -52 -35 -142 -47 -200 -12 -58 -30 -142 -41
-187 -23 -98 -22 -94 -6 -87 7 2 25 -8 39 -23 l27 -28 -18 -105 c-10 -58 -22
-104 -27 -103 -5 1 -18 4 -29 8 -14 5 -12 -1 10 -19 17 -14 33 -26 36 -26 3 0
18 60 33 133 16 72 32 139 37 147 10 17 4 -32 -11 -90 -5 -19 -11 -78 -14
-130 -3 -52 -3 -86 0 -75 3 11 14 56 24 99 11 44 22 81 25 84 2 2 9 -7 16 -21
8 -17 17 -23 27 -19 11 4 14 1 10 -9 -3 -9 -12 -50 -18 -92 -9 -52 -17 -77
-26 -77 -8 0 -14 5 -14 10 0 6 -7 10 -17 10 -15 0 -15 -1 1 -19 9 -10 33 -27
54 -37 20 -10 43 -27 50 -37 8 -10 21 -16 30 -13 25 8 43 -6 27 -21 -10 -10
-48 12 -180 103 -92 63 -170 113 -173 110 -3 -3 1 -6 8 -6 7 0 11 -3 7 -6 -6
-6 51 -63 62 -62 20 2 31 -3 26 -12 -4 -6 -3 -10 2 -9 17 3 53 -14 47 -22 -3
-5 1 -9 9 -9 8 0 18 -7 21 -15 3 -9 11 -15 18 -14 20 3 49 -12 42 -22 -3 -5 0
-9 6 -9 6 0 8 -4 5 -10 -3 -5 -2 -10 4 -10 5 0 12 6 14 13 4 10 6 10 6 0 1 -7
8 -13 17 -13 8 0 12 -4 9 -10 -3 -5 1 -10 9 -10 9 0 16 -5 16 -11 0 -8 4 -8
14 0 12 10 36 -2 128 -63 114 -77 150 -92 142 -58 -3 9 -1 28 5 42 l10 25 1
-25 c6 -80 9 -91 31 -110 13 -10 29 -19 35 -20 7 0 28 85 53 218 23 119 62
316 86 437 25 121 46 235 47 253 2 34 7 39 25 21 8 -8 7 -18 -3 -37 -14 -30
-37 -148 -38 -202 -1 -19 -4 -37 -8 -40 -4 -3 -19 -65 -33 -139 -25 -125 -25
-133 -9 -145 18 -13 12 -36 -9 -36 -7 0 -6 4 3 10 13 8 12 10 -2 10 -12 0 -18
-8 -18 -24 0 -13 -3 -32 -6 -40 -5 -12 -2 -15 10 -10 15 6 22 -7 16 -31 -2
-10 -6 -37 -9 -62 0 -7 -10 -13 -21 -13 -11 0 -20 -5 -20 -11 0 -6 7 -8 16 -5
13 5 14 4 6 -7 -6 -7 -12 -46 -13 -87 -2 -65 1 -75 21 -92 12 -10 30 -18 39
-18 15 1 15 2 -1 13 -9 7 -24 17 -34 22 -16 10 -16 17 -4 93 8 45 17 82 22 82
5 0 20 -7 33 -16 24 -16 25 -15 25 7 0 12 3 19 6 16 4 -4 1 -26 -6 -51 -6 -24
-10 -52 -8 -62 3 -12 9 -2 18 29 13 49 20 56 39 34 8 -10 8 -35 -1 -95 -11
-84 -22 -98 -49 -65 -13 15 -15 13 -19 -17 -3 -18 -11 -36 -19 -38 -10 -3 -12
0 -8 12 4 10 3 15 -3 11 -6 -3 -10 1 -10 9 0 9 -6 16 -14 16 -8 0 -23 3 -33 6
-10 3 0 -10 22 -30 22 -19 47 -36 55 -36 8 0 24 -7 34 -15 29 -22 33 -19 40
23 3 20 8 46 10 57 2 11 5 26 5 33 1 14 31 17 31 2 0 -5 -4 -10 -10 -10 -5 0
-10 -9 -10 -20 0 -11 5 -20 11 -20 8 0 10 -20 6 -62 l-5 -63 10 55 c14 80 17
85 30 72 7 -7 15 -12 18 -12 4 0 22 101 40 225 21 141 38 224 44 221 6 -2 10
-9 8 -16 -19 -81 -42 -263 -37 -290 4 -26 3 -31 -5 -20 -7 11 -9 -1 -6 -45 4
-45 3 -52 -3 -25 -7 30 -9 32 -10 9 0 -15 -3 -42 -6 -60 -4 -26 -3 -30 4 -14
8 16 10 16 10 4 2 -30 -11 -79 -19 -74 -9 6 -22 -53 -14 -66 12 -20 23 -6 30
39 7 52 23 91 24 59 0 -40 18 -4 24 50 14 122 29 203 38 203 5 0 6 5 3 11 -9
13 5 130 14 125 4 -3 5 11 3 30 -3 21 0 34 7 34 8 0 10 12 6 38 -5 26 -3 33 3
23 8 -11 11 -9 15 10 l4 24 2 -24 c0 -14 -15 -148 -34 -299 -27 -205 -33 -277
-25 -287 6 -8 10 -36 9 -64 -2 -37 2 -55 15 -70 17 -18 17 -19 -2 -25 -25 -8
-37 -37 -20 -47 7 -4 10 -10 8 -12 -7 -6 -233 126 -417 242 -83 53 -184 117
-225 142 -40 26 -172 111 -293 189 -121 78 -246 158 -279 178 -32 21 -162 105
-287 189 l-229 152 1 -610 c0 -444 3 -608 11 -603 8 5 9 1 3 -12 -5 -10 -10
-147 -11 -304 -2 -157 1 -271 5 -255 5 17 18 77 31 135 12 58 26 110 30 115 5
6 23 66 40 134 17 67 38 134 47 147 12 19 14 34 7 67 -9 39 -11 42 -43 42 -19
0 -36 6 -38 13 -3 8 4 11 19 10 19 -3 25 4 36 40 8 24 12 45 9 48 -2 2 -27 7
-56 11 -28 3 -51 9 -51 12 0 3 11 40 23 81 l24 75 88 3 c48 2 92 -1 97 -6 6
-6 -1 -49 -17 -107 -14 -54 -22 -101 -17 -104 8 -6 26 -41 25 -51 -1 -3 -4
-15 -8 -27 -3 -13 -2 -23 3 -23 6 0 15 23 22 50 7 28 15 50 19 50 17 0 18 -13
4 -41 -8 -16 -12 -35 -10 -42 3 -6 8 3 12 21 4 18 14 32 22 32 10 0 13 -6 9
-16 -3 -9 -9 -27 -12 -41 -4 -15 -12 -22 -20 -19 -9 3 -14 -2 -14 -14 0 -11
-7 -20 -15 -20 -8 0 -15 5 -15 10 0 6 -7 10 -16 10 -16 0 -16 13 2 73 3 9 1
17 -3 17 -5 0 -15 -27 -22 -60 -7 -33 -16 -58 -20 -56 -4 3 -6 -13 -4 -34 1
-26 -4 -44 -19 -60 -16 -17 -18 -24 -8 -30 9 -5 10 -17 5 -36 -5 -16 -9 -36
-11 -44 -2 -8 -10 -19 -18 -26 -16 -12 -36 -101 -20 -91 15 9 104 -13 104 -26
0 -7 -27 -133 -61 -282 -53 -237 -119 -556 -119 -577 0 -5 29 -8 64 -8 l63 0
12 43 c6 23 22 96 36 162 96 470 158 749 206 935 19 74 28 131 25 160 -3 40
-7 46 -35 56 -30 10 -31 11 -13 30 26 28 34 55 21 70 -9 11 -8 19 5 33 13 15
14 20 4 24 -7 2 1 8 17 11 17 4 52 12 78 19 27 6 46 16 43 22 -4 11 18 16 84
19 30 1 35 -2 32 -19 -1 -11 -4 -45 -7 -75 -3 -30 -9 -69 -14 -86 -5 -18 -5
-37 1 -47 7 -13 5 -17 -7 -17 -8 0 -15 -7 -15 -15 0 -8 4 -15 9 -15 9 0 6 -27
-6 -60 -3 -8 -7 -24 -8 -36 -2 -11 -9 -40 -16 -65 -6 -24 -13 -64 -14 -89 -1
-25 -7 -55 -14 -67 -9 -17 -9 -23 0 -23 8 0 8 -4 -1 -15 -6 -8 -9 -23 -5 -35
4 -11 2 -20 -4 -20 -6 0 -11 -16 -11 -35 0 -19 -4 -35 -8 -35 -5 0 -9 -18 -10
-41 -1 -22 -6 -48 -11 -57 -5 -10 -12 -40 -14 -67 -3 -28 -6 -51 -7 -52 -8 -9
-5 -31 5 -48 15 -25 9 -45 -13 -45 -15 -1 -15 -2 1 -14 23 -18 22 -23 -11 -50
-15 -13 -33 -41 -41 -62 -7 -22 -20 -47 -29 -56 -8 -10 -16 -36 -18 -58 -1
-22 -10 -48 -19 -57 -13 -12 -16 -27 -12 -58 5 -30 1 -49 -13 -72 l-19 -31 32
-12 c18 -7 26 -14 19 -17 -6 -3 -10 -8 -7 -13 2 -4 -13 -10 -35 -14 -27 -4
-40 -11 -40 -22 0 -8 -3 -13 -8 -10 -4 2 -32 1 -62 -3 -39 -5 -54 -11 -52 -21
3 -11 0 -11 -13 0 -8 7 -18 10 -22 6 -9 -9 -2 -13 31 -22 21 -5 27 -4 22 5 -4
6 -2 11 4 11 6 0 14 -10 19 -22 10 -27 22 -27 32 -1 6 15 8 14 9 -7 1 -24 1
-24 15 -6 8 11 15 15 15 8 0 -9 6 -9 25 0 23 10 28 8 53 -19 15 -17 37 -34 49
-37 13 -4 23 -11 23 -16 0 -11 -40 -17 -250 -35 -96 -9 -185 -18 -197 -21
l-23 -4 0 -526 0 -525 27 3 c26 3 28 7 46 98 27 131 27 149 -1 167 -21 14 -22
14 -16 -2 5 -13 2 -16 -11 -14 -10 2 -18 9 -18 14 1 6 -3 15 -8 22 -17 19 12
52 51 59 19 3 75 14 125 24 76 16 92 23 109 47 44 62 83 93 117 94 33 0 87 17
61 18 -9 1 -11 8 -7 21 4 13 2 20 -7 20 -8 0 -5 7 7 20 13 13 44 22 90 29 39
5 88 14 110 20 51 14 135 14 135 1 0 -6 -7 -13 -16 -17 -26 -10 -66 -53 -49
-53 8 0 15 -7 15 -16 0 -14 -3 -14 -15 -4 -12 10 -15 9 -16 -4 -1 -9 -2 -19
-3 -23 -1 -5 -8 -35 -15 -68 -6 -33 -14 -71 -17 -84 -4 -18 -2 -22 10 -18 19
8 20 -7 6 -89 -13 -73 -39 -211 -46 -241 l-4 -23 143 0 144 0 7 68 c8 82 39
286 68 447 12 66 22 130 23 142 1 13 4 26 8 29 10 10 157 -7 157 -18 0 -7 -19
-9 -50 -6 -57 6 -76 -4 -86 -45 -5 -23 -4 -26 11 -21 13 6 16 3 12 -12 -3 -10
-11 -50 -17 -89 -7 -38 -18 -74 -24 -80 -7 -5 -18 -53 -24 -107 -7 -53 -15
-103 -18 -112 -4 -11 -1 -16 11 -16 17 0 17 -1 1 -19 -10 -11 -15 -25 -11 -31
4 -7 1 -16 -6 -21 -20 -12 -4 -22 18 -11 16 9 19 7 20 -11 2 -14 -1 -17 -6 -9
-12 20 -41 -8 -44 -43 -1 -20 3 -30 15 -33 12 -2 18 5 21 30 l4 33 1 -33 2
-33 57 3 58 3 7 44 c4 25 13 48 19 52 7 4 7 8 1 10 -16 7 5 142 25 156 14 11
14 13 2 13 -14 0 -13 11 0 102 10 60 21 103 28 106 7 2 13 8 13 13 0 6 -5 7
-10 4 -11 -7 -13 14 -3 68 4 26 10 36 19 33 8 -3 14 -1 14 4 0 6 -4 10 -10 10
-5 0 -10 12 -10 26 0 19 4 25 15 20 8 -3 15 0 15 7 0 7 3 23 7 36 5 22 4 22
-17 11 -16 -9 -45 -10 -99 -4 -104 10 -61 22 87 23 61 1 112 5 112 10 0 5 -8
17 -17 27 -13 13 -14 19 -5 22 7 2 9 8 6 13 -7 12 20 72 38 86 7 6 28 13 47
17 18 3 44 18 57 33 21 24 29 27 111 29 48 2 81 1 72 -2 -13 -4 -20 -34 -33
-142 -9 -75 -23 -189 -31 -252 -14 -104 -65 -553 -65 -572 0 -4 27 -8 59 -8
l59 0 7 77 c14 184 59 647 70 728 2 17 7 55 11 86 8 68 11 74 48 83 l30 7 -22
-18 c-19 -16 -25 -46 -56 -298 -19 -154 -42 -343 -50 -420 -9 -77 -18 -164
-22 -193 l-6 -53 214 3 213 3 50 47 c27 27 55 48 61 48 7 0 14 7 18 15 3 8 12
15 21 15 8 0 15 6 15 14 0 8 5 18 12 22 8 5 9 2 5 -10 -5 -13 -3 -15 11 -7 11
6 24 6 36 -1 9 -5 20 -8 22 -5 3 2 -9 10 -26 17 -16 7 -30 18 -30 26 0 13 54
57 61 49 12 -12 92 -11 104 2 9 8 16 9 20 3 3 -5 14 -9 23 -9 15 1 15 2 0 6
-23 6 -22 9 2 35 11 12 20 16 20 10 0 -16 23 -11 30 6 4 10 11 8 25 -8 15 -17
16 -21 5 -20 -8 1 -28 2 -44 1 -56 -2 -12 -21 58 -26 84 -5 103 -11 103 -30 0
-11 -4 -12 -13 -4 -7 6 -19 9 -26 6 -8 -4 -7 -6 4 -6 12 -1 15 -6 11 -18 -4
-10 -2 -14 5 -9 7 4 10 -1 7 -13 -3 -15 2 -19 18 -18 12 1 28 8 35 17 10 10
11 11 6 1 -5 -11 -3 -13 10 -8 10 4 22 7 28 7 5 0 3 7 -6 15 -8 8 -24 15 -35
15 -11 0 -23 5 -26 10 -9 14 100 4 123 -11 13 -8 10 -9 -17 -5 -28 5 -32 4
-22 -8 10 -11 8 -16 -9 -21 -17 -6 -19 -9 -8 -18 7 -7 11 -11 9 -10 -2 2 -10
-2 -18 -8 -10 -9 -13 -8 -13 0 0 8 -8 10 -19 6 -10 -3 -35 -6 -55 -7 -20 -1
-39 -5 -42 -10 -3 -5 -2 -8 3 -7 4 1 10 1 13 -1 3 -1 21 -3 40 -5 19 -2 51 -6
70 -9 27 -4 29 -4 6 2 -16 4 -31 14 -33 22 -4 12 -3 12 5 2 5 -8 22 -13 38
-12 49 3 74 0 74 -9 0 -5 -9 -7 -20 -4 -11 3 -27 -2 -37 -12 -16 -17 -16 -17
6 -10 20 6 23 4 18 -9 -5 -13 -3 -15 12 -7 10 6 29 8 42 5 51 -11 119 -12 119
-1 0 6 3 7 7 4 3 -4 -3 -18 -15 -30 -17 -18 -19 -24 -7 -24 8 0 15 4 15 9 0 9
45 30 73 33 9 2 21 3 27 4 5 0 7 8 4 16 -4 8 -1 15 5 15 6 0 11 -4 11 -9 0 -5
15 -5 35 -1 20 4 38 4 41 -1 3 -5 -4 -9 -15 -9 -25 0 -36 -16 -15 -24 21 -8
26 -8 20 3 -8 12 19 22 30 11 5 -5 27 -10 49 -13 33 -3 30 -4 -17 -5 -31 -1
-60 -6 -63 -12 -3 -5 -11 -10 -17 -10 -6 0 -8 3 -5 7 4 3 -5 12 -20 20 -21 11
-28 11 -35 1 -17 -28 -6 -33 77 -34 46 -1 82 2 80 6 -3 4 6 8 20 8 14 0 22 -4
20 -8 -8 -13 248 -6 270 8 20 11 20 11 -2 12 -12 0 -24 4 -27 9 -11 17 45 -2
58 -20 10 -16 25 -18 87 -17 48 1 78 6 84 14 11 15 95 8 95 -7 0 -5 7 -9 15
-9 8 0 15 5 15 10 0 6 7 10 15 10 8 0 15 -4 15 -8 0 -10 41 -9 58 2 7 4 25 5
38 2 16 -4 23 -3 20 3 -4 5 -2 13 4 16 6 4 10 3 9 -2 -5 -31 2 -33 116 -31 85
1 112 5 105 13 -7 8 0 20 20 38 34 31 42 33 33 11 -3 -9 -15 -20 -27 -24 -19
-8 -18 -9 7 -9 16 -1 26 3 23 8 -3 4 1 17 9 27 16 22 20 38 6 29 -5 -3 -13 -1
-16 5 -4 7 6 10 28 8 34 -2 35 -2 18 -25 -9 -12 -20 -23 -24 -23 -5 0 -5 -4
-2 -10 11 -18 47 -11 52 10 3 11 10 20 15 20 6 0 8 -7 4 -15 -3 -8 0 -15 7
-16 7 0 3 -4 -8 -9 -15 -7 -16 -9 -4 -9 9 -1 22 6 30 15 10 13 10 17 -2 25
-10 6 -6 9 16 10 17 1 34 1 39 0 5 -1 4 4 -2 11 -9 11 1 13 49 14 32 0 59 -4
59 -9 0 -4 -19 -7 -41 -6 -36 3 -43 0 -50 -19 -10 -26 -4 -28 17 -7 26 25 45
19 39 -13 l-5 -27 11 27 c5 15 18 27 27 27 17 1 28 1 87 -1 16 0 31 4 33 11 2
6 10 11 19 11 17 0 12 -24 -5 -26 -7 -1 -16 -2 -22 -3 -5 0 -10 -6 -10 -12 0
-5 5 -7 10 -4 6 3 10 -1 10 -9 0 -9 8 -16 18 -16 14 0 15 2 2 10 -15 10 -8 14
22 11 12 -2 16 3 12 13 -3 9 -1 16 5 16 6 0 11 -12 11 -26 0 -14 4 -23 10 -19
6 3 13 -1 17 -11 6 -15 7 -15 14 4 6 15 13 20 26 15 10 -4 12 -8 5 -11 -18 -6
-14 -21 6 -22 9 -1 106 -4 215 -7 160 -3 197 -1 191 9 -5 10 -4 11 7 0 22 -21
48 -14 55 14 4 16 2 29 -5 33 -7 5 -9 15 -5 26 6 14 4 16 -6 10 -10 -6 -12 -2
-8 18 3 15 2 24 -2 22 -10 -6 -42 153 -34 167 4 6 3 9 -2 5 -5 -3 -22 56 -38
131 -15 76 -34 160 -41 187 -7 28 -22 91 -33 140 -71 310 -84 363 -91 393 -8
27 -7 32 9 32 10 0 21 -7 24 -16 4 -9 13 -14 21 -10 10 4 15 -1 15 -14 0 -11
5 -20 10 -20 6 0 10 -5 10 -11 0 -6 9 -22 20 -36 27 -35 25 -49 -7 -61 -16 -6
-22 -11 -15 -11 7 -1 11 -5 8 -10 -3 -4 -1 -23 5 -42 28 -94 151 -590 174
-704 15 -72 34 -137 41 -146 8 -8 14 -24 14 -35 0 -11 6 -32 13 -47 11 -25 16
-27 74 -26 44 1 61 5 56 13 -3 6 0 6 8 -2 7 -6 28 -12 47 -12 27 0 32 3 28 18
-2 9 -7 37 -10 62 -4 39 -3 36 11 -17 l16 -63 64 0 c44 0 69 5 79 15 13 13 13
15 1 15 -10 0 -18 20 -25 68 -12 73 -32 188 -37 212 -2 8 -4 30 -4 48 -1 19
-5 31 -11 27 -5 -3 -10 1 -10 10 0 9 4 14 9 11 5 -3 9 21 8 54 -1 54 -3 60
-26 69 -18 6 -20 10 -8 10 19 1 22 14 8 39 -5 9 -12 41 -16 71 -10 73 15 66
32 -10 21 -92 111 -541 118 -591 l7 -48 139 0 c77 0 139 2 139 5 0 2 -7 23
-16 44 -9 22 -17 60 -17 83 -1 24 -6 46 -12 50 -6 5 -5 8 3 8 10 0 9 4 -3 16
-12 12 -13 19 -4 30 9 11 8 14 -5 14 -12 0 -16 9 -16 35 0 32 15 51 18 23 1
-14 9 -50 13 -58 1 -3 3 -9 4 -15 1 -5 5 -17 8 -25 3 -8 11 -42 17 -75 6 -33
16 -77 21 -97 l10 -38 74 0 c43 0 75 4 75 10 0 6 -4 10 -10 10 -5 0 -13 1 -17
2 -11 2 -38 31 -36 37 1 3 -3 12 -9 19 -7 8 1 7 26 -3 20 -8 36 -12 36 -9 0
12 -34 33 -52 34 -10 0 -18 5 -18 10 0 16 22 12 58 -10 l32 -20 0 26 c0 14 -4
23 -10 19 -6 -3 -17 1 -26 9 -9 9 -20 14 -25 11 -5 -4 -9 -2 -9 3 0 5 -10 13
-22 17 -20 6 -20 8 -5 12 22 6 22 12 0 30 -17 14 -17 14 2 8 51 -18 75 -23 75
-17 0 4 -20 108 -45 232 -25 124 -45 228 -45 231 0 4 -21 12 -47 19 -77 21
-73 30 14 30 79 0 80 0 78 -24 -2 -14 -6 -30 -10 -36 -4 -6 0 -17 9 -23 19
-15 57 -166 46 -186 -4 -8 -4 -22 0 -30 11 -23 50 -168 50 -187 0 -13 -3 -14
-15 -4 -24 20 -20 -25 4 -47 29 -27 43 -72 39 -123 l-3 -45 44 -3 c28 -2 47 1
52 10 7 10 9 10 9 1 0 -7 9 -13 20 -13 21 0 21 0 1 21 -11 12 -24 18 -30 15
-7 -4 -8 -1 -5 8 5 12 10 13 26 5 16 -9 19 -8 16 2 -3 8 -15 16 -28 19 -16 4
-24 13 -25 29 -2 21 0 22 10 8 7 -9 15 -14 18 -10 4 3 7 0 7 -7 0 -7 3 -11 6
-7 3 3 -4 20 -16 37 -12 17 -19 34 -16 38 4 3 11 0 16 -8 8 -12 10 -10 10 7 0
15 -5 21 -14 17 -8 -3 -16 3 -19 15 -6 26 9 38 17 14 4 -14 4 -13 2 2 -1 11
-8 19 -15 17 -10 -2 -11 7 -6 38 4 22 3 40 -2 40 -4 0 -8 29 -8 65 0 43 -4 66
-12 70 -7 2 -13 9 -13 15 0 6 5 8 10 5 14 -9 13 8 -2 23 -9 9 -9 12 3 12 10 1
10 3 -3 11 -24 13 -23 26 2 34 11 3 20 11 20 16 0 6 -8 8 -17 5 -10 -3 -25 -1
-33 4 -10 6 -11 10 -2 10 7 0 12 12 11 28 -1 17 -3 20 -6 9 -2 -9 -9 -14 -14
-11 -6 4 -3 14 7 25 9 10 21 16 27 12 6 -4 8 0 4 10 -7 20 4 22 21 5 9 -9 12
-8 12 8 0 16 2 17 10 4 6 -10 10 -11 10 -2 0 6 1 15 3 19 1 4 -11 9 -28 10
-16 1 -40 5 -52 8 -15 3 -23 1 -24 -7 0 -7 -5 -3 -11 10 -8 16 -20 22 -42 22
-32 0 -74 34 -56 45 6 4 10 2 10 -3 0 -9 92 -28 200 -41 46 -5 55 -9 55 -26 0
-14 7 -20 22 -19 12 0 21 -2 20 -5 -1 -3 5 -17 12 -29 7 -13 10 -26 7 -30 -3
-3 -6 0 -6 6 0 7 -7 12 -15 12 -9 0 -29 7 -44 15 -26 13 -30 13 -42 -1 -10
-12 -10 -26 -1 -65 16 -69 15 -87 -7 -106 -11 -9 -17 -21 -14 -26 3 -5 9 -4
13 3 5 8 13 1 24 -21 12 -23 13 -35 5 -40 -8 -5 -8 -8 1 -14 6 -4 9 -13 6 -20
-2 -7 1 -21 9 -31 18 -26 8 -49 -14 -32 -15 12 -15 11 -1 -7 8 -11 21 -26 29
-35 9 -10 10 -15 2 -18 -8 -3 -7 -10 3 -23 10 -15 11 -27 3 -48 -8 -21 -6 -35
7 -63 9 -19 16 -39 15 -44 -1 -5 -1 -19 0 -31 1 -23 3 -23 137 -23 l137 0 -6
45 c-5 36 -4 45 8 45 17 0 18 3 6 50 -17 66 -23 116 -13 105 6 -5 13 -23 16
-40 3 -16 10 -52 16 -80 6 -27 8 -55 5 -62 -2 -7 0 -13 5 -13 6 0 10 -7 10
-15 0 -8 -7 -15 -15 -15 -8 0 -15 -4 -15 -9 0 -15 138 -11 144 5 3 7 2 16 -3
18 -4 3 -6 18 -3 34 3 20 -1 31 -12 35 -9 4 -16 2 -16 -3 0 -6 -5 -10 -11 -10
-5 0 -8 4 -4 9 3 5 1 12 -4 15 -5 3 -12 26 -16 52 -8 54 -11 70 -20 107 -4 16
-3 27 3 27 6 0 13 -18 17 -40 7 -39 18 -50 30 -30 4 6 2 17 -4 24 -7 9 -7 16
1 24 9 9 7 12 -8 12 -16 0 -17 2 -4 10 13 9 13 11 0 20 -11 7 -11 10 -2 10 8
0 10 5 5 13 -4 6 -6 20 -4 30 2 14 -3 18 -16 15 -10 -2 -17 -11 -15 -19 3 -11
1 -12 -9 -2 -20 20 -37 15 -42 -9 -4 -20 -4 -20 -6 4 -1 19 5 29 19 33 11 3
19 12 17 18 -1 7 7 11 18 10 13 -1 28 10 41 30 11 18 26 31 33 29 7 -1 11 5 9
15 -2 10 -16 20 -35 24 -18 3 -43 13 -55 21 -13 8 -44 22 -70 31 -45 15 -48
15 -48 -1 -1 -15 -2 -15 -15 2 -13 17 -13 22 2 38 19 21 69 24 76 5 5 -14 133
-40 149 -31 4 3 8 277 8 609 l0 604 -21 6 c-35 11 -44 -8 -31 -67 32 -155 22
-174 -15 -30 -30 117 -31 112 23 112 l45 0 -3 308 -3 307 -34 115 c-46 157
-45 157 -34 145 6 -5 16 -30 22 -55 7 -25 21 -74 31 -110 18 -65 18 -65 19
-23 1 23 -8 82 -20 130 -37 158 -51 233 -44 233 4 0 48 -143 58 -185 2 -11 5
206 6 483 1 397 -1 502 -11 502 -10 0 -10 2 0 9 9 5 12 30 10 83 l-3 75 -100
-73 c-55 -40 -143 -102 -195 -139 -52 -36 -135 -95 -185 -130 -145 -102 -556
-367 -562 -361 -2 2 1 14 6 27 5 13 10 17 11 9 0 -9 6 -5 13 10 8 14 19 24 26
22 7 -1 10 2 6 8 -3 5 1 13 9 16 9 3 13 10 10 15 -3 5 2 9 10 9 9 0 16 4 16
10 0 5 6 7 13 4 17 -6 27 6 67 86 18 36 42 75 53 88 23 25 17 30 -7 6 -9 -8
-28 -16 -43 -17 -22 -2 -28 2 -28 18 0 11 -6 25 -13 30 -27 21 9 118 36 101 6
-3 16 2 23 11 12 14 12 16 0 8 -11 -6 -13 -4 -8 8 4 10 2 17 -4 17 -6 0 -9 7
-5 15 3 8 1 15 -4 15 -12 0 -13 57 -1 64 4 3 5 23 1 43 -19 100 -19 111 3 40
24 -76 47 -119 47 -86 0 18 32 47 47 42 7 -3 2 34 -13 94 -13 54 -46 193 -74
308 -28 116 -54 224 -60 240 -5 17 -14 53 -20 80 -6 28 -20 83 -32 123 l-22
72 -63 0 -64 0 5 -37 5 -38 -11 38 -12 37 -153 0 -153 0 6 -24 c4 -16 1 -25
-10 -29 -12 -5 -16 0 -16 23 0 23 -4 30 -20 30 -19 0 -20 -4 -13 -72 4 -47 3
-69 -4 -65 -6 4 -13 34 -17 68 -6 65 -9 73 -24 68 -5 -2 -3 -35 4 -74 11 -64
10 -72 -7 -89 -22 -24 -38 -14 -18 11 9 11 10 14 2 9 -9 -5 -13 0 -13 18 0 13
-3 33 -6 43 -4 13 -3 15 4 5 7 -11 11 -8 14 12 3 15 1 29 -5 33 -5 3 -7 1 -3
-5 3 -6 2 -13 -3 -16 -5 -3 -8 8 -7 24 2 29 1 30 -45 30 -30 0 -51 -6 -60 -16
-12 -14 -14 -14 -21 3 -5 10 -6 -1 -2 -27 4 -33 2 -41 -5 -30 -6 8 -11 27 -11
43 l0 27 -255 0 -256 -1 5 -47 c2 -26 7 -72 10 -102 4 -41 1 -35 -10 25 -8 44
-17 90 -20 103 -4 19 -11 22 -53 22 -30 0 -51 -5 -54 -12 -4 -10 -6 -10 -6 0
-1 9 -39 12 -165 11 l-165 0 -11 -56 c-11 -53 -13 -55 -41 -51 -28 4 -29 3
-29 -39 0 -41 -1 -43 -30 -43 -25 0 -30 4 -30 25 0 14 -4 25 -9 25 -4 0 -7 10
-6 23 1 12 0 14 -2 5 -5 -21 -43 -24 -43 -4 0 8 6 17 13 19 7 3 5 6 -5 6 -22
1 -23 -41 -4 -219 12 -108 12 -128 0 -148 -8 -12 -12 -27 -9 -32 3 -5 1 -11
-5 -15 -6 -4 -11 6 -11 22 -2 46 -16 -51 -24 -162 -3 -55 -2 -124 3 -153 6
-32 6 -55 0 -58 -5 -4 -7 -27 -3 -53 7 -50 -19 -180 -39 -193 -21 -14 -26 -8
-26 32 0 33 -3 40 -20 40 -18 0 -20 -7 -20 -77 -1 -71 -2 -76 -15 -59 -8 11
-18 17 -21 13 -4 -4 3 -15 14 -26 23 -19 30 -51 12 -51 -6 0 -15 10 -20 23 -7
17 -9 9 -11 -38 -2 -33 -3 -76 -2 -95 1 -19 -1 -86 -4 -149 -5 -100 -7 -114
-24 -118 -10 -3 -19 -9 -19 -14 0 -5 -4 -9 -10 -9 -5 0 -10 8 -10 18 0 13 -2
14 -9 3 -6 -9 -11 -10 -15 -2 -9 15 -109 3 -119 -15 -12 -20 -35 -17 -47 6 -8
15 -21 20 -55 20 -25 0 -45 5 -45 10 0 6 7 10 16 10 15 0 44 23 44 34 0 3 -12
7 -27 7 -21 1 -23 2 -8 6 11 3 25 10 30 15 7 7 3 8 -12 4 -12 -4 -24 -3 -27 2
-3 6 4 13 17 16 21 7 21 7 2 16 l-20 9 20 1 c15 1 12 4 -9 11 -17 4 -31 7 -32
6 -1 -1 -4 -67 -6 -147 l-3 -145 48 -3 c37 -2 47 0 47 12 0 9 5 16 10 16 6 0
10 -7 10 -15 0 -8 6 -12 15 -9 8 3 13 11 12 17 -1 6 14 11 35 12 53 1 60 15 7
16 -88 1 -161 8 -168 14 -3 4 15 6 41 4 38 -3 47 -1 45 11 -1 10 6 15 26 14
159 -3 167 -4 167 -19 0 -8 -4 -15 -10 -15 -5 0 -10 5 -10 11 0 5 -5 7 -11 3
-7 -4 -8 -9 -1 -13 5 -3 9 -21 8 -38 l-1 -33 -60 -1 c-33 0 -95 0 -137 1 l-78
1 0 -100 c0 -90 2 -101 18 -101 28 0 39 13 35 45 -6 54 -5 63 19 99 15 23 31
36 46 36 21 0 22 -4 22 -84 0 -47 3 -87 8 -89 4 -3 7 35 6 84 l-1 89 50 0 c43
0 49 -2 44 -19 -3 -14 0 -17 14 -14 16 4 19 0 19 -26 0 -17 -4 -31 -10 -31 -5
0 -10 7 -10 15 0 8 -4 15 -10 15 -5 0 -10 -22 -10 -48 0 -67 -13 -81 -85 -85
l-60 -3 63 -2 63 -2 -2 -69 c-1 -37 2 -74 6 -81 6 -9 3 -10 -13 -1 -18 10 -21
8 -24 -17 l-3 -27 -97 -3 -98 -3 0 -39 0 -40 44 0 c35 0 43 3 42 17 -1 12 8
16 36 17 42 2 59 13 38 26 -12 8 -10 10 9 10 20 0 23 -3 17 -27 -3 -16 -11
-54 -18 -85 -6 -33 -16 -54 -21 -51 -6 3 -7 2 -4 -4 4 -6 2 -34 -3 -64 -6 -30
-12 -67 -15 -84 -8 -48 23 51 46 145 19 79 43 135 31 74 -3 -17 -1 -25 6 -20
6 4 8 -1 5 -13 -3 -11 -11 -22 -18 -25 -10 -3 -13 -20 -11 -55 3 -38 1 -48 -9
-44 -9 3 -17 -9 -25 -39 -6 -23 -17 -63 -25 -88 l-14 -45 6 40 c3 23 2 36 -3
32 -10 -9 -13 -127 -4 -127 4 0 11 5 18 12 9 9 12 6 12 -13 0 -40 24 -30 47
20 12 25 47 99 77 164 30 64 58 117 61 117 6 0 -7 -32 -74 -172 -28 -59 -51
-113 -51 -121 0 -7 -3 -17 -8 -23 -4 -5 -5 -38 -2 -74 l5 -64 22 44 c11 25 24
53 27 63 3 9 10 16 15 15 6 -2 21 10 34 26 20 25 25 27 30 12 4 -10 3 -15 -3
-11 -5 3 -18 -11 -27 -32 -10 -21 -20 -40 -23 -43 -28 -26 -35 -60 -30 -130
l5 -75 7 82 c7 99 29 150 27 63 -4 -123 2 -130 60 -80 34 29 34 29 29 100 -3
39 -2 73 3 76 4 2 9 -30 11 -73 3 -72 4 -76 20 -59 14 13 108 50 108 42 0 -2
-29 -22 -64 -46 l-63 -43 5 -136 c2 -75 2 -134 -1 -131 -3 3 -7 30 -8 60 -2
30 -8 58 -14 62 -6 5 -5 8 3 8 6 0 12 4 12 10 0 5 -8 7 -17 4 -11 -4 -14 -2
-8 3 13 10 18 103 6 103 -12 0 -28 -22 -28 -40 -1 -8 -4 -61 -8 -116 l-8 -102
89 -7 c49 -4 107 -11 129 -16 35 -7 31 -8 -28 -6 -37 1 -67 -2 -67 -6 0 -5
-21 -6 -47 -2 -27 4 -81 8 -121 9 -59 1 -73 -1 -77 -15 -4 -11 -13 -15 -25
-12 -15 4 -20 0 -20 -13 0 -16 -2 -17 -10 -4 -7 11 -10 7 -10 -17 0 -18 5 -33
10 -33 6 0 10 -7 10 -16 0 -14 -2 -15 -17 -3 -16 13 -16 12 -1 -9 8 -12 30
-39 49 -60 19 -20 34 -42 34 -48 0 -12 104 -114 115 -114 4 0 7 -7 7 -15 0 -8
-6 -15 -13 -15 -7 0 -14 -10 -16 -22 -2 -18 -9 -23 -30 -23 -16 1 -28 -3 -28
-7 0 -16 33 -21 52 -9 16 10 19 10 12 0 -5 -9 -1 -11 14 -7 12 4 24 2 27 -3 3
-4 13 -5 21 -2 13 5 15 1 10 -15 -6 -17 -4 -21 8 -16 15 6 43 -32 32 -44 -3
-3 -6 1 -6 9 0 12 -2 11 -11 -1 -8 -11 -12 -12 -16 -2 -2 6 -9 12 -14 12 -6 0
-8 -4 -5 -9 3 -5 -3 -11 -14 -14 -11 -3 -20 0 -20 6 0 8 -4 7 -9 -2 -6 -9 -10
-10 -16 -2 -4 7 -2 18 5 26 9 11 7 13 -7 11 -10 -2 -18 -10 -17 -18 1 -10 -9
-14 -33 -13 -19 0 -37 -3 -39 -7 -3 -4 -11 -8 -17 -8 -7 1 -1 10 12 20 13 11
18 20 13 20 -6 0 -14 -5 -18 -11 -3 -6 -18 -8 -33 -5 -17 5 -21 4 -12 -2 21
-15 2 -20 -79 -22 -118 -3 -152 -1 -145 10 8 13 -16 13 -35 -1 -13 -9 -13 -10
2 -6 9 3 19 -1 22 -9 8 -21 8 -24 -5 -24 -5 0 -7 5 -4 10 3 6 -1 10 -10 10
-10 0 -15 -7 -13 -17 2 -9 6 -16 11 -15 4 1 22 2 40 3 26 0 28 2 12 8 -14 6
-1 10 45 12 45 3 67 0 73 -8 4 -7 13 -13 20 -13 7 0 6 4 -3 10 -18 11 -17 12
78 15 70 3 99 -8 71 -26 -8 -5 -18 -9 -24 -9 -5 0 -3 5 5 10 11 7 5 10 -23 10
-22 0 -36 -4 -32 -10 3 -5 12 -7 20 -3 8 3 15 0 15 -6 0 -6 7 -11 15 -11 8 0
15 -5 15 -11 0 -6 -8 -8 -19 -4 -21 6 -34 -15 -25 -42 4 -11 3 -14 -3 -6 -6 8
-16 8 -38 -2 l-30 -13 28 -1 c25 -1 27 -3 16 -23 -11 -21 -12 -21 -25 -3 -12
17 -18 14 -15 -7 0 -4 -9 -4 -22 1 -12 4 -49 7 -82 6 -41 -1 -67 3 -82 14 -32
23 -28 28 17 26 46 -2 67 -15 25 -15 -36 0 -29 -7 14 -15 18 -3 39 -1 46 5 10
8 20 8 32 1 11 -5 25 -6 32 -1 10 6 9 9 -7 14 l-21 7 21 34 c22 38 31 46 21
18 -7 -17 -6 -17 19 -1 24 16 27 16 32 1 4 -9 9 -13 13 -9 12 11 -17 31 -47
32 -19 1 -31 -4 -35 -15 -8 -26 -43 -43 -63 -31 -15 8 -14 9 7 7 13 -1 26 3
28 9 2 6 -13 9 -43 7 -25 -2 -43 0 -41 5 3 4 -6 9 -21 10 -21 1 -24 0 -12 -8
25 -16 1 -11 -33 7 -18 9 -35 16 -39 15 -5 -1 -7 1 -7 6 4 25 -4 32 -35 29
-32 -2 -33 -3 -19 -20 18 -20 12 -32 -12 -23 -9 3 -13 12 -10 18 4 7 0 5 -8
-4 -10 -13 -33 -18 -82 -21 -65 -3 -91 -16 -64 -33 7 -4 9 -3 5 4 -9 14 33 20
62 8 16 -6 26 -6 34 2 7 7 16 12 22 12 5 0 1 -7 -10 -15 -26 -19 -4 -19 24 1
13 9 22 11 22 4 0 -6 5 -8 13 -4 8 5 8 3 -2 -9 -7 -9 -17 -14 -22 -11 -5 3
-19 2 -32 -2 -21 -7 -21 -7 -2 -15 17 -7 16 -7 -6 -6 -15 1 -25 6 -23 12 3 6
-5 11 -16 12 -27 2 -25 -9 9 -46 17 -18 28 -38 24 -47 -3 -7 -1 -14 5 -14 5 0
12 9 15 20 3 13 10 18 21 14 9 -3 13 -10 10 -15 -3 -5 -9 -7 -14 -4 -4 3 -10
-2 -14 -10 -10 -26 -34 -16 -47 19 -7 19 -17 32 -23 30 -25 -9 -86 -11 -86 -3
0 5 21 10 48 10 26 1 39 3 29 6 -15 4 -17 11 -12 31 5 22 4 25 -6 14 -8 -7
-36 -12 -68 -11 -31 1 -48 3 -38 6 11 3 16 11 13 19 -3 7 3 18 12 24 14 10 15
11 1 7 -9 -3 -21 -1 -26 4 -5 5 -23 12 -39 15 -45 8 -64 15 -64 24 0 4 10 6
23 3 20 -4 21 -3 5 10 -10 8 -18 19 -18 24 0 14 51 48 66 45 7 -1 11 5 10 15
0 10 9 19 24 24 14 4 19 7 13 8 -18 1 4 45 42 86 29 31 101 114 144 165 24 29
28 15 5 -18 -9 -13 -14 -25 -12 -28 3 -2 33 -5 69 -6 56 -3 67 0 88 21 20 20
22 27 12 47 -15 33 -41 42 -57 19 -13 -18 -14 -18 -14 3 0 17 -6 22 -25 22
-24 0 -25 2 -19 43 7 43 -9 45 -19 2 -3 -14 -5 -11 -6 10 -2 53 -12 59 -82 50
-81 -11 -229 -13 -229 -5 0 6 151 29 203 31 12 0 17 9 17 32 0 35 -18 75 -21
47 -1 -8 -5 -1 -9 15 l-8 30 -2 -30 c-2 -24 -4 -21 -9 15 -8 61 -24 53 -33
-16 -10 -78 -18 -80 -18 -5 0 34 -5 71 -10 82 -12 21 -1 26 18 7 7 -7 12 -9
12 -5 0 4 9 3 19 -3 29 -15 21 16 -10 37 -13 9 -26 19 -29 22 -3 4 -39 28 -80
55 -41 28 -79 56 -83 63 -4 7 -15 13 -24 13 -9 0 -32 16 -51 36 -22 23 -27 32
-14 25 18 -10 21 -8 25 17 4 26 4 26 6 -5 1 -25 10 -37 48 -62 25 -17 51 -31
56 -31 6 0 7 24 4 61 -5 39 -3 58 3 54 6 -3 10 -33 10 -65 0 -57 14 -88 23
-53 4 15 5 14 6 -3 1 -14 21 -34 65 -63 35 -22 67 -41 70 -41 3 0 6 28 6 61 0
54 2 60 15 49 8 -7 15 -18 15 -25 0 -11 20 -25 35 -25 7 0 -36 68 -51 80 -7 7
-14 20 -14 30 0 10 -7 21 -16 24 -9 4 -14 9 -11 12 3 3 -16 36 -42 72 -152
213 -209 290 -228 309 -12 12 -29 37 -38 55 l-16 33 34 -38 34 -37 7 31 c3 17
6 72 6 122 0 50 3 87 7 83 4 -4 6 -65 4 -136 l-3 -130 48 -65 c26 -36 49 -65
50 -65 1 0 0 42 -3 92 -5 85 -5 92 10 79 14 -11 16 -27 10 -100 -7 -98 -13
-82 101 -241 44 -62 61 -79 68 -68 8 10 9 9 5 -3 -4 -13 35 -89 46 -89 1 0 3
21 4 48 2 45 -6 72 -48 169 -11 24 -19 45 -19 47 0 2 -35 80 -78 172 -79 170
-94 204 -88 204 6 0 133 -266 183 -384 32 -77 55 -120 76 -141 16 -15 17 -15
17 9 0 18 -5 26 -17 26 -15 0 -15 2 -4 9 13 8 7 32 -33 151 -26 78 -46 143
-44 146 3 2 17 -35 33 -82 24 -71 31 -83 42 -72 10 10 10 22 3 48 -11 40 -5
53 10 19 8 -18 9 -9 4 41 -3 36 -10 70 -16 77 -6 7 -7 13 -2 14 5 0 -1 4 -13
9 -13 5 -23 18 -23 29 0 17 10 20 89 26 l89 7 -3 35 c-2 19 -5 37 -8 39 -2 2
-49 7 -105 10 -56 4 -99 10 -97 14 3 5 41 11 86 15 68 6 78 9 62 20 -10 7 -36
16 -58 22 l-40 9 45 22 45 21 -40 -5 c-26 -4 -35 -2 -27 4 11 7 10 10 -5 15
-10 3 -43 15 -73 25 l-55 19 85 7 c47 3 105 8 130 9 25 2 -13 5 -85 7 l-130 3
127 10 127 9 4 52 3 51 2 -52 c2 -50 3 -53 30 -54 24 0 25 -1 7 -9 -19 -8 -19
-9 2 -9 42 -2 47 61 68 864 6 240 10 284 30 340 6 16 5 17 -4 5 -9 -11 -10 56
-6 270 3 157 8 331 11 387 l6 103 -441 0 c-391 0 -441 -2 -441 -16 0 -8 -4
-13 -9 -10 -9 6 -20 -47 -22 -104 l0 -35 -15 45 c-15 49 -18 77 -4 45 7 -17 9
-15 9 12 1 17 4 38 7 46 4 12 -7 15 -60 16 -53 1 -65 -2 -69 -17 -4 -16 -5
-16 -6 1 -1 13 -10 17 -40 17 l-39 0 -4 -57 c-3 -43 2 -76 20 -126 13 -38 22
-71 19 -73 -3 -3 -15 25 -28 63 -16 47 -22 87 -21 131 l3 62 -79 0 -79 0 -13
-100 c-7 -54 -17 -97 -21 -94 -4 2 -5 -11 -2 -31 3 -20 1 -35 -4 -35 -5 0 -11
25 -12 55 -1 32 2 55 8 55 6 0 8 6 6 13 -3 7 -2 40 3 75 l9 62 -236 0 c-159
-1 -231 -4 -219 -10 29 -18 41 -74 28 -133 -15 -65 -31 -148 -65 -354 -15 -90
-31 -163 -35 -163 -4 0 -15 11 -24 25 -9 14 -22 23 -28 19 -7 -4 -8 -3 -4 5 4
6 -1 23 -11 39 -17 23 -18 32 -7 62 11 33 12 33 16 10 4 -25 7 -12 68 305 17
88 33 168 36 178 4 13 -1 17 -25 17 -20 0 -31 -6 -34 -17 -12 -41 -27 -120
-30 -153 -2 -19 -9 -45 -16 -58 -6 -12 -9 -22 -5 -22 4 0 -3 -9 -16 -20 -13
-11 -18 -20 -13 -20 21 0 35 -57 28 -117 -9 -74 -12 -78 -37 -51 -16 19 -19
20 -14 4 5 -14 2 -17 -10 -12 -13 5 -12 0 5 -29 11 -19 16 -35 11 -35 -5 0
-14 8 -19 18 -8 13 -11 14 -11 2 0 -10 -7 -7 -19 10 -11 13 -17 29 -14 34 3 5
2 6 -4 3 -5 -3 -21 7 -34 23 -51 63 -60 74 -92 117 -17 24 -63 83 -101 131
-38 48 -86 111 -108 140 l-39 52 -254 0 c-238 0 -254 -1 -249 -17 5 -17 5 -17
-8 -1 -13 15 -40 17 -241 18 -206 0 -227 -1 -235 -17z m4913 -63 c3 -30 19
-169 37 -308 33 -269 33 -264 -13 -322 -14 -18 -17 -20 -12 -6 4 12 3 17 -4
13 -6 -4 -8 9 -4 36 8 54 -1 133 -14 130 -6 -1 -11 10 -12 25 -2 24 -1 25 8 7
5 -13 7 8 3 60 -4 44 -10 82 -13 85 -12 8 -34 197 -27 225 4 17 3 24 -4 20
-18 -11 -11 38 11 74 25 42 36 32 44 -39z m-1907 -15 c27 -30 28 -36 5 -28
-17 6 -17 6 -1 -10 18 -19 52 -12 44 8 -2 7 0 17 6 23 7 7 21 -3 44 -34 37
-48 43 -67 19 -58 -8 4 -15 1 -15 -5 0 -6 -9 -11 -21 -11 -11 0 -17 5 -14 10
3 6 1 10 -4 10 -6 0 -11 -4 -11 -9 0 -12 76 -51 84 -44 3 4 6 -4 6 -17 0 -12
-8 -28 -17 -35 -18 -14 -43 -9 -43 7 0 11 -30 37 -42 38 -5 0 -8 -8 -8 -17 0
-14 -2 -15 -12 -4 -11 11 -10 14 0 18 6 3 10 9 6 14 -3 5 -2 8 3 7 4 -2 8 1 8
6 0 5 -10 10 -22 11 -13 0 -23 -3 -23 -7 0 -4 -6 -8 -14 -8 -8 0 -16 -6 -19
-12 -2 -7 -6 -1 -9 14 -3 15 -1 33 4 40 7 10 8 8 4 -4 -6 -20 9 -24 20 -6 4 7
-2 18 -14 26 -12 8 -22 20 -22 27 0 8 -12 23 -26 34 l-27 21 44 1 c37 1 40 2
19 9 l-25 8 26 1 c16 1 34 -9 47 -24z m-618 -15 c18 0 19 -6 13 -67 -6 -63 -5
-67 11 -54 18 15 17 5 -3 -247 -6 -77 -5 -88 22 -153 16 -38 33 -69 38 -69 5
0 9 -10 9 -22 0 -13 5 -41 12 -63 11 -38 12 -39 19 -15 8 23 8 23 5 -4 -2 -16
2 -52 9 -80 7 -28 12 -52 11 -54 -6 -5 -140 375 -139 395 1 13 -3 21 -7 18
-12 -7 -23 32 -14 47 4 7 3 9 -1 5 -5 -4 -24 39 -42 95 -38 118 -36 111 -24
103 6 -3 12 17 14 47 3 44 4 42 4 -17 0 -146 15 -112 29 70 4 55 9 92 12 83 2
-10 12 -18 22 -18z m-220 -150 c0 -34 -5 -104 -11 -157 -10 -90 -9 -97 10
-117 18 -20 19 -27 10 -94 -6 -40 -8 -83 -6 -95 3 -13 5 -6 7 18 2 37 3 35 10
-18 7 -55 15 -76 25 -66 2 3 10 69 16 147 7 81 16 137 20 130 5 -7 6 -38 4
-68 -12 -156 -14 -240 -5 -240 6 0 10 26 10 57 0 92 10 54 13 -50 2 -53 6 -99
9 -102 8 -9 20 151 17 233 -2 39 0 74 4 78 4 4 7 -2 7 -12 0 -11 4 -24 10 -30
5 -5 10 -25 11 -44 2 -64 -14 -305 -21 -315 -9 -13 14 -68 24 -58 4 5 7 4 6
-2 -4 -20 0 -38 8 -31 4 4 12 53 18 109 10 88 11 94 12 42 1 -33 -2 -90 -7
-128 -4 -37 -4 -72 0 -78 9 -16 19 28 20 96 1 78 12 153 21 139 4 -6 2 -56 -3
-111 -7 -65 -7 -112 -1 -134 l10 -34 1 40 c1 42 15 74 27 63 3 -4 2 -47 -3
-95 -7 -62 -7 -94 1 -108 8 -16 13 9 21 117 5 75 14 140 19 145 13 12 -3 -256
-16 -277 -9 -13 -8 -26 2 -49 13 -33 30 -42 30 -16 0 8 -4 15 -10 15 -5 0 -10
9 -10 21 0 15 5 19 15 15 13 -4 15 8 15 78 l0 83 25 -5 c18 -3 24 -9 21 -21
-3 -9 -8 -68 -11 -131 -4 -63 -9 -123 -12 -134 -3 -12 -1 -16 6 -12 6 4 11 3
11 -3 0 -5 -5 -11 -10 -13 -7 -2 -5 -16 6 -36 9 -18 14 -35 12 -38 -4 -4 -85
158 -298 601 -46 94 -87 172 -91 173 -5 2 -7 8 -3 13 3 5 0 9 -5 9 -6 0 -11 6
-11 13 0 6 -25 66 -55 131 -30 66 -55 121 -55 122 0 2 6 1 14 -2 8 -3 28 -37
45 -75 17 -38 34 -69 39 -69 4 0 7 27 7 60 0 33 -4 60 -8 60 -8 0 1 174 13
255 5 34 4 52 -4 57 -7 5 -5 8 7 8 14 0 17 -9 17 -60z m-353 -108 c-4 -2 -3
-10 4 -18 9 -11 9 -14 0 -14 -8 0 -10 -11 -5 -34 3 -19 3 -40 -2 -47 -4 -7 -8
-26 -9 -43 -3 -71 -18 -156 -28 -156 -5 0 -7 -13 -3 -32 4 -18 2 -67 -5 -108
-15 -104 -17 -109 -34 -76 -18 34 -18 37 -2 31 9 -4 13 15 14 72 3 92 7 129
34 288 11 66 23 140 27 165 l6 45 6 -35 c3 -19 2 -37 -3 -38z m3672 11 c2 35
20 16 27 -28 3 -25 10 -48 15 -51 5 -3 9 -24 9 -48 0 -23 3 -46 7 -49 3 -4 8
-24 10 -44 4 -57 6 -63 13 -63 3 0 6 -8 7 -17 1 -10 4 -52 7 -93 3 -41 9 -95
15 -120 5 -25 17 -87 27 -137 17 -92 29 -114 37 -70 4 19 4 18 6 -5 0 -16 -3
-28 -8 -28 -6 0 -3 -12 5 -27 19 -38 18 -49 -8 -67 -27 -19 -19 -21 17 -4 22
10 25 16 19 47 -12 70 -45 247 -60 321 -9 41 -26 129 -39 195 -33 171 -48 229
-58 236 -5 4 -4 10 3 14 6 4 13 5 15 4 1 -2 15 -64 29 -138 15 -74 31 -140 37
-147 5 -6 7 -20 3 -30 -5 -16 -4 -17 5 -4 9 12 10 6 6 -25 -5 -29 -4 -36 4
-25 8 11 9 5 6 -25 -4 -31 -3 -36 5 -20 7 15 8 11 4 -20 -4 -32 -3 -37 6 -25
10 12 11 11 7 -7 -3 -13 -1 -26 5 -29 5 -3 7 -24 3 -48 -4 -28 -3 -36 4 -27 7
11 13 -2 21 -47 7 -34 16 -59 20 -57 5 3 6 -4 3 -15 -7 -27 5 -72 17 -65 6 3
10 -3 10 -14 0 -12 -7 -21 -15 -21 -9 0 -15 -9 -14 -22 0 -16 2 -18 7 -8 3 9
13 -14 24 -55 9 -38 16 -56 14 -40 -3 17 -7 48 -10 70 -3 22 -3 32 0 23 3 -10
9 -18 14 -18 5 0 5 13 0 30 -5 19 -5 28 1 25 5 -4 9 -10 9 -14 0 -5 8 -26 17
-47 9 -22 16 -43 15 -47 -1 -4 3 -17 9 -28 9 -17 7 -21 -11 -26 -13 -4 -19
-11 -15 -22 3 -11 -16 -31 -65 -66 -39 -27 -89 -64 -112 -82 -24 -18 -44 -30
-46 -28 -3 2 -14 -1 -25 -6 -15 -8 -22 -8 -28 2 -6 11 -11 11 -20 2 -9 -9 -9
-16 1 -28 11 -13 10 -14 -5 -8 -14 5 -17 3 -12 -10 3 -8 -1 -21 -10 -29 -14
-11 -15 -10 -9 10 4 12 3 22 -2 22 -6 0 -10 23 -9 52 1 34 -3 53 -11 56 -8 2
-11 15 -6 37 3 18 -8 125 -26 245 -17 117 -29 215 -26 218 3 3 6 -1 6 -9 0 -8
14 -88 31 -179 16 -91 30 -182 29 -203 -1 -43 7 -60 22 -51 7 4 6 9 -3 14 -10
7 -10 12 2 26 9 11 9 15 2 10 -25 -15 -8 39 17 55 30 20 40 16 40 -15 0 -17 7
-25 24 -28 29 -6 60 10 37 19 -11 4 -11 7 0 13 10 7 10 14 2 33 -8 16 -8 28
-2 34 7 7 5 39 -5 94 -18 104 -29 218 -16 174 l9 -30 -3 35 c-6 71 -50 289
-57 285 -4 -3 -5 3 -3 12 4 15 -25 185 -50 302 -7 31 5 51 15 25 7 -17 8 -17
8 -1z m-843 -16 c9 3 14 -2 14 -17 0 -13 4 -19 12 -14 7 5 8 3 4 -5 -5 -7 -14
-10 -22 -7 -8 3 -14 -1 -14 -8 0 -8 6 -14 13 -13 39 1 49 -3 38 -16 -6 -8 -9
-16 -6 -19 3 -2 -4 -4 -15 -4 -18 1 -29 -13 -12 -15 23 -3 42 -23 42 -44 0
-29 -24 -34 -39 -7 -12 19 -14 8 -5 -25 4 -13 11 -20 18 -16 7 4 6 1 -1 -7
-10 -11 -8 -16 10 -24 12 -7 23 -20 25 -30 2 -10 0 -16 -5 -13 -4 3 -13 -1
-20 -8 -10 -10 -7 -14 13 -19 25 -7 35 -46 12 -46 -9 0 -8 -4 2 -10 13 -9 13
-11 0 -20 -13 -9 -13 -12 3 -24 17 -13 17 -14 -5 -22 -20 -8 -22 -14 -17 -49
5 -30 7 -33 8 -12 1 27 2 27 20 10 21 -21 34 -74 17 -72 -27 3 -36 -2 -36 -21
0 -15 7 -20 25 -20 31 0 31 -14 1 -65 -28 -46 -32 -41 -40 50 -2 33 -18 174
-35 312 -27 221 -38 364 -24 311 2 -10 10 -15 19 -11z m802 -177 c7 -11 14
-36 17 -55 5 -45 34 -223 41 -252 4 -20 0 -23 -30 -23 -19 0 -38 -5 -41 -10
-13 -21 -27 3 -21 35 4 18 0 66 -8 107 -8 40 -17 90 -21 111 -3 21 -10 35 -16
32 -13 -9 -11 49 3 63 19 19 62 14 76 -8z m-4612 -15 c21 -14 27 -57 11 -82
-4 -6 -3 -13 3 -15 12 -4 -7 -76 -27 -99 -11 -14 -11 -18 0 -28 12 -10 12 -20
1 -69 -8 -31 -16 -73 -18 -92 -5 -38 -28 -130 -51 -196 -8 -23 -11 -51 -8 -64
6 -22 6 -22 17 -2 11 21 11 21 22 -3 9 -19 9 -22 -2 -18 -19 7 -18 -14 2 -25
13 -7 14 -19 7 -68 -5 -33 -12 -57 -18 -54 -6 3 -9 8 -8 12 2 5 -3 7 -10 5 -7
-1 -13 12 -15 34 -3 30 -8 38 -28 42 -13 2 -24 1 -24 -2 0 -4 -9 -7 -20 -7
-11 0 -20 4 -20 8 0 4 4 8 10 8 5 0 7 6 4 14 -6 17 6 82 46 246 15 63 31 138
35 165 4 28 18 106 31 174 13 69 24 126 24 128 0 7 17 2 36 -12z m745 -94 l-8
-65 65 -88 c36 -48 72 -88 81 -88 11 0 13 -3 4 -8 -9 -6 -5 -18 15 -47 15 -22
33 -46 40 -53 18 -19 15 -27 -5 -11 -13 11 -17 12 -21 1 -5 -15 -76 72 -157
194 -58 85 -63 96 -42 89 8 -4 12 7 13 32 0 42 13 117 19 111 2 -1 0 -32 -4
-67z m2687 -3 c18 3 22 -2 23 -25 1 -15 1 -36 0 -45 -2 -15 3 -17 28 -12 20 4
31 2 31 -5 0 -10 -20 -15 -47 -12 -7 1 -13 -4 -13 -12 0 -7 6 -19 13 -26 10
-10 8 -15 -7 -27 -13 -9 -15 -14 -6 -14 11 0 11 -3 2 -12 -17 -17 -15 -29 3
-22 16 7 15 2 -18 -75 -14 -32 -14 -32 -20 -10 -6 23 -10 72 -22 234 -4 44 -8
91 -10 105 -3 15 1 10 8 -10 9 -28 17 -34 35 -32z m-3845 -166 l27 -29 -20
-102 c-11 -56 -20 -105 -20 -108 0 -3 -56 27 -78 43 -5 4 52 224 58 224 4 0
18 -13 33 -28z m4574 -68 c-3 -3 5 -16 19 -29 21 -19 23 -25 11 -37 -9 -8 -11
-21 -6 -33 12 -31 10 -45 -6 -45 -20 0 -19 -30 6 -197 11 -76 24 -165 29 -198
28 -207 34 -242 45 -265 7 -14 12 -40 11 -58 0 -17 2 -32 7 -32 4 0 8 -8 8
-17 1 -10 5 -4 10 12 7 26 8 24 5 -13 -3 -29 -12 -50 -27 -63 -27 -24 -39 -24
-39 -1 0 14 2 15 10 2 7 -11 10 -7 10 19 0 25 -3 32 -15 27 -9 -3 -15 0 -15 9
0 8 5 15 11 15 5 0 8 4 5 8 -3 5 -8 40 -11 78 -4 38 -22 175 -42 304 -19 129
-37 255 -40 280 -3 25 -10 51 -16 59 -9 10 -7 16 6 26 12 8 16 21 12 41 -16
103 -16 114 2 114 9 0 14 -3 10 -6z m-2833 -241 c-7 -60 -15 -146 -18 -193 -9
-134 10 -52 24 106 7 76 17 144 22 149 6 6 7 1 4 -15 -24 -106 -27 -364 -5
-328 6 9 9 4 9 -14 0 -31 -14 -37 -25 -10 -7 15 -9 14 -15 -8 l-8 -25 -1 28
c-1 37 -21 35 -21 -3 0 -16 5 -30 10 -30 6 0 10 -10 10 -21 0 -20 36 -89 46
-89 3 0 2 10 -1 23 -5 17 -4 19 4 7 6 -8 11 -26 12 -40 0 -23 1 -23 9 -5 8 18
9 18 9 -5 1 -28 35 -88 60 -107 9 -6 13 -14 10 -18 -4 -3 -19 10 -35 30 -16
19 -57 63 -90 98 l-62 63 4 95 c3 79 2 88 -7 54 -5 -22 -8 -51 -6 -65 2 -14 1
-35 -2 -48 -5 -20 -10 -15 -40 40 l-34 63 28 -25 29 -25 -19 30 c-10 17 -28
45 -40 63 -19 27 -21 40 -14 75 4 24 4 43 -2 45 -19 7 -8 18 22 20 22 2 38 -5
59 -27 l29 -28 5 26 c9 48 18 130 18 176 1 35 5 45 17 45 15 0 15 -10 5 -107z
m1837 -18 c0 -5 2 -23 3 -40 2 -16 7 -78 11 -137 6 -101 6 -108 -12 -108 -15
0 -16 2 -3 10 13 9 13 10 0 10 -13 0 -13 1 0 10 13 9 13 10 0 10 -13 0 -13 1
0 10 11 7 11 10 2 10 -7 0 -11 4 -8 9 5 8 -15 21 -33 21 -18 0 -17 -189 2
-271 1 -6 -4 -14 -10 -16 -8 -3 -13 3 -13 14 0 10 -7 81 -15 158 -18 170 -18
175 -4 175 5 0 7 -5 3 -11 -9 -15 15 -29 51 -29 23 0 27 3 15 10 -13 9 -13 10
0 10 12 0 12 2 2 9 -8 4 -11 19 -8 34 3 17 0 27 -7 27 -7 0 -6 4 3 10 10 6 11
10 3 10 -7 0 -13 9 -13 21 0 11 -4 28 -9 37 -7 14 -4 17 15 17 13 0 24 -4 25
-10z m1143 -77 c22 -21 27 -42 50 -203 15 -99 26 -184 26 -189 0 -9 50 1 62
12 4 4 2 29 -4 56 -8 39 -7 50 3 57 11 7 9 9 -6 10 -13 0 -15 3 -6 6 10 4 10
7 1 13 -6 4 -13 25 -14 47 -2 23 -7 46 -10 52 -4 6 -2 11 3 11 6 0 11 5 11 11
0 5 -4 8 -9 5 -15 -10 -23 57 -8 72 12 11 19 -19 46 -190 17 -112 33 -214 35
-228 4 -26 0 -29 -113 -109 -19 -13 -30 -18 -26 -11 5 8 3 11 -6 8 -8 -3 -13
-11 -11 -17 1 -7 -2 -10 -7 -6 -6 3 -9 36 -8 73 0 37 3 59 5 50 7 -33 23 -19
17 15 -3 17 -19 122 -35 232 -17 110 -32 210 -35 223 -3 12 -1 22 4 22 6 0 21
-10 35 -22z m-4265 -27 l23 -18 -17 -99 c-10 -54 -20 -102 -24 -106 -4 -4 -19
3 -34 15 l-28 22 22 103 c12 56 25 102 28 102 3 0 17 -9 30 -19z m3823 -218
c23 -12 26 -20 26 -63 1 -27 -3 -52 -9 -55 -5 -4 -9 4 -9 16 0 14 -4 19 -9 14
-5 -6 -3 -45 6 -95 13 -76 18 -115 22 -172 0 -11 9 -18 21 -18 11 0 20 -5 20
-11 0 -6 -6 -9 -14 -6 -22 9 -24 -10 -9 -95 16 -91 28 -128 43 -128 6 0 8 -4
5 -10 -3 -5 -15 -10 -25 -10 -14 0 -21 9 -25 38 -3 20 -9 48 -12 62 -3 14 -5
32 -4 41 1 9 -12 111 -29 228 -17 116 -31 223 -32 236 -3 29 -18 34 -18 6 0
-11 -5 -23 -11 -27 -8 -4 -10 -29 -6 -73 5 -64 5 -65 -7 -26 -7 22 -11 43 -9
48 2 4 0 7 -6 7 -5 0 -13 -9 -16 -21 -4 -11 -9 -18 -13 -15 -3 4 -18 -15 -34
-41 -20 -35 -28 -43 -29 -28 -3 26 -4 34 -13 73 -7 29 -4 37 21 62 36 37 41
37 46 -2 2 -18 3 -12 1 13 -1 26 2 51 9 58 15 15 84 11 119 -6z m-2662 -234
c0 -11 -7 -96 -16 -189 -14 -151 -14 -171 -1 -191 11 -15 13 -28 6 -45 -5 -14
-12 -74 -15 -134 -4 -61 -11 -110 -16 -110 -4 0 -8 19 -8 43 0 36 -5 47 -30
66 -26 18 -30 27 -25 54 18 118 24 150 29 155 3 3 1 11 -5 19 -6 7 -8 13 -4
13 4 0 2 6 -4 14 -8 10 -9 16 -1 21 18 11 11 25 -12 25 -13 0 -30 5 -38 10
-11 7 -6 10 22 10 38 0 47 10 40 47 -3 14 -13 23 -31 26 -21 3 -20 4 9 6 27 1
32 4 20 11 -13 9 -12 12 4 22 18 10 17 12 -10 23 l-29 13 28 11 c16 6 26 15
22 20 -3 5 0 13 6 17 8 5 7 9 -2 14 -7 5 -13 18 -14 29 -1 18 4 21 37 21 32 0
38 -3 38 -21z m4030 -38 c-19 -6 -10 -9 39 -14 35 -4 82 -7 104 -7 24 0 48 -7
59 -17 24 -21 23 -33 -2 -33 -11 0 -20 -5 -20 -10 0 -7 -6 -8 -17 -2 -20 11
-88 -20 -97 -44 -3 -9 0 -41 8 -72 61 -234 308 -1390 301 -1402 -3 -4 48 -10
113 -14 154 -9 215 -17 205 -27 -9 -9 -117 -3 -529 26 -961 69 -1011 73 -964
85 14 3 25 13 25 22 0 30 12 29 18 -2 6 -27 10 -30 44 -29 21 0 33 3 27 5 -12
5 -6 64 6 64 4 0 12 -17 17 -37 l9 -38 69 -2 c70 -1 70 -1 25 9 -25 6 -39 13
-32 15 14 5 16 33 2 33 -15 0 -12 60 3 60 8 1 6 5 -4 13 -10 7 -15 25 -14 45
1 18 -2 35 -7 38 -4 3 3 15 17 28 29 27 32 51 9 60 -9 3 -14 12 -11 20 3 8 -1
45 -9 83 -19 89 -36 213 -36 263 0 8 -6 66 -14 129 -8 62 -13 115 -11 117 3 3
80 -408 138 -736 17 -96 34 -178 37 -181 4 -4 40 -9 80 -12 64 -5 73 -4 68 9
-3 9 -6 28 -6 44 0 22 -6 29 -27 35 -21 5 -24 8 -12 16 7 5 9 9 3 9 -5 0 -11
19 -13 43 -1 23 -6 44 -12 45 -6 3 -5 10 2 19 8 9 9 17 3 21 -16 12 -12 52 6
52 24 0 31 10 20 30 -5 9 -11 50 -14 91 -5 80 -14 129 -25 129 -3 0 -6 17 -6
38 1 20 -2 57 -6 82 -8 54 -19 132 -25 180 -3 19 -14 91 -25 159 -11 68 -18
128 -16 134 5 17 147 -793 185 -1060 6 -41 5 -66 -2 -73 -7 -7 7 -10 45 -11
29 -1 58 -1 62 0 5 1 41 -3 81 -8 76 -9 126 -5 126 10 0 5 -7 9 -16 9 -8 0
-12 5 -9 11 4 6 -2 17 -13 25 -17 12 -20 24 -19 74 1 43 5 60 15 60 7 0 10 5
7 10 -13 21 -35 10 -36 -17 -1 -26 -1 -26 -11 7 -39 142 -39 141 -54 126 -18
-19 -18 -26 1 -26 21 0 19 -18 -2 -23 -15 -3 -14 -6 7 -15 l25 -11 -26 0 c-23
-1 -27 4 -33 37 -10 63 -8 72 18 72 22 0 23 2 15 43 -5 23 -12 65 -15 92 -3
28 -14 86 -24 130 -21 90 -35 193 -26 184 4 -3 20 -73 35 -155 16 -82 34 -160
39 -174 5 -14 13 -49 17 -77 4 -29 11 -53 15 -53 10 0 18 88 9 98 -7 8 -32
124 -34 157 -1 11 -5 28 -9 38 -5 9 -6 23 -3 31 3 8 3 17 -1 20 -3 4 -7 14 -8
24 -2 9 -8 37 -14 62 -7 25 -13 61 -14 80 -1 22 -6 34 -14 32 -7 -1 -12 9 -13
25 -2 100 -6 161 -12 169 -9 15 -45 242 -46 291 0 23 -2 48 -3 55 -2 9 17 14
70 16 67 3 94 -8 57 -22 -14 -5 -14 -9 0 -35 23 -46 42 -108 74 -242 28 -116
211 -1023 226 -1116 6 -36 10 -43 30 -43 12 0 25 7 29 15 3 10 -1 15 -12 15
-14 0 -17 11 -19 64 -2 57 0 64 20 74 22 11 22 11 1 11 -27 1 -42 31 -16 31
16 1 16 2 -1 14 -17 13 -47 91 -47 123 0 7 10 14 23 14 20 1 20 2 2 6 -35 9
-65 48 -69 89 -2 21 -6 46 -10 54 -3 8 -21 92 -40 185 -19 94 -48 234 -65 312
-29 133 -37 188 -24 155 4 -10 8 -10 21 0 14 10 15 10 5 -2 -15 -16 -17 -66
-4 -74 4 -3 17 2 27 10 18 15 18 15 -3 11 -13 -3 -23 -2 -23 1 0 14 20 37 31
37 7 0 14 6 17 13 2 7 -2 10 -12 6 -9 -3 -16 -1 -16 5 0 6 7 11 15 11 8 0 15
4 15 9 0 6 -15 7 -34 4 -30 -5 -35 -3 -38 18 -2 18 4 29 27 42 l30 18 -30 -6
c-27 -5 -28 -4 -12 8 23 19 22 27 -4 27 -19 0 -20 5 -16 42 3 22 1 55 -4 71
-16 56 -21 109 -10 102 6 -3 11 -4 11 -1 0 2 3 11 6 19 4 11 -1 13 -23 10 -24
-4 -26 -3 -10 7 10 6 22 23 27 36 7 16 17 24 32 23 22 -1 22 -1 -2 -8z m-3875
-303 c-2 -37 -1 -40 2 -11 2 25 10 44 20 47 13 5 15 0 10 -31 -6 -37 -23 -331
-21 -365 1 -24 -10 -23 -40 5 l-25 22 21 193 c12 105 25 192 28 192 4 0 6 -24
5 -52z m91 -60 c-11 -148 -15 -213 -9 -189 2 13 11 31 19 38 8 8 14 35 15 61
0 26 4 67 8 92 5 30 7 6 5 -70 -4 -117 -20 -299 -27 -306 -2 -3 -18 3 -36 13
-26 15 -31 24 -31 56 0 20 4 37 8 37 5 0 9 12 9 28 0 76 28 322 36 322 6 0 7
-32 3 -82z m1814 42 c-13 -9 -13 -11 0 -20 22 -14 27 -13 44 12 16 22 16 22
16 -9 0 -23 -6 -36 -21 -44 -17 -9 -20 -17 -14 -45 3 -19 12 -106 20 -194 8
-88 17 -165 20 -170 6 -10 -22 -26 -31 -18 -6 7 -32 227 -39 338 -3 52 -8 110
-11 128 -4 26 -2 32 13 32 15 0 16 -2 3 -10z m655 -227 c4 -24 9 -32 15 -23
10 17 17 -5 25 -85 3 -33 9 -73 12 -90 3 -16 2 -27 -1 -24 -4 4 -13 40 -20 80
-8 41 -14 65 -15 54 -1 -20 41 -357 55 -443 5 -35 4 -41 -8 -37 -11 4 -18 27
-22 68 -4 34 -23 150 -42 258 -19 108 -34 208 -34 223 0 16 -4 25 -10 21 -11
-7 -14 18 -3 28 19 19 41 5 48 -30z m-3697 -59 c19 -5 20 -8 8 -18 -18 -14
-32 -96 -17 -96 16 0 14 -26 -3 -43 -9 -8 -12 -24 -9 -36 3 -11 1 -27 -5 -34
-7 -8 -6 -21 3 -42 8 -18 14 -23 14 -13 1 9 6 20 13 24 14 9 3 -85 -12 -100
-10 -10 -15 11 -10 44 4 32 -18 -6 -24 -43 -5 -26 -3 -39 6 -42 12 -5 14 -30
9 -102 -1 -16 -6 -21 -16 -17 -11 5 -15 -1 -15 -22 l-1 -29 -13 25 c-8 14 -12
28 -10 32 3 5 0 8 -5 8 -6 0 -11 -6 -11 -13 0 -13 -54 -391 -65 -454 -5 -26
-2 -33 10 -33 11 0 14 6 10 23 -3 12 1 31 9 42 17 23 32 14 21 -12 -18 -41
-16 -43 58 -42 40 0 108 4 152 8 44 4 84 4 89 -1 6 -5 2 -8 -10 -8 -10 0 -71
-5 -134 -10 -63 -5 -241 -18 -395 -30 -154 -11 -296 -23 -315 -26 -34 -6 -34
-5 -14 10 16 12 67 18 211 26 226 12 250 16 256 42 4 14 1 18 -13 16 -24 -4
-24 -2 -15 79 9 90 19 113 43 106 25 -6 23 -13 67 237 20 113 49 273 65 355
17 83 30 160 30 173 0 24 3 25 38 16z m1580 -69 c2 -27 0 -79 -3 -115 -7 -64
-7 -64 -25 -43 -9 12 -29 25 -43 28 -22 6 -25 12 -22 33 12 70 12 101 1 106
-6 2 3 5 19 6 29 1 29 2 7 11 -34 13 -16 31 26 27 37 -3 37 -3 40 -53z m-1498
3 c0 -6 -7 -40 -16 -76 -9 -35 -14 -77 -12 -93 3 -15 0 -30 -5 -32 -9 -3 -10
-21 -4 -87 1 -19 0 -39 -3 -45 -3 -5 -10 -46 -15 -90 -8 -63 -7 -85 3 -102 11
-18 11 -24 -6 -40 -25 -24 -37 -83 -17 -83 8 0 15 -9 15 -20 0 -11 -4 -20 -10
-20 -5 0 -10 -5 -10 -11 0 -7 10 -9 26 -5 l26 7 -6 -63 c-13 -128 -16 -138
-38 -138 -18 0 -20 4 -14 41 5 34 4 38 -8 27 -7 -7 -11 -19 -8 -27 3 -7 -2
-18 -11 -23 -9 -4 -14 -15 -11 -23 5 -11 -2 -15 -25 -15 -27 0 -31 3 -27 23 6
25 36 195 65 372 11 66 36 209 56 318 19 109 35 203 35 208 0 5 5 9 10 9 6 0
10 -5 10 -12z m4615 -49 c-3 -10 -2 -26 4 -36 24 -45 69 -258 115 -538 20
-122 20 -115 -4 -115 -11 0 -20 -5 -20 -11 0 -8 -4 -8 -14 0 -11 9 -16 9 -21
0 -8 -12 14 -31 27 -23 5 3 11 -2 14 -10 3 -9 17 -16 30 -16 15 0 24 -6 24
-15 0 -9 -9 -15 -25 -15 -22 0 -24 -3 -18 -32 6 -29 5 -31 -18 -25 -13 4 -27
7 -31 7 -5 0 -8 11 -8 24 0 14 -4 27 -9 30 -4 3 -6 16 -4 30 3 13 -1 34 -8 47
-17 32 -18 35 -29 174 -6 66 -11 127 -12 135 -3 33 3 50 17 50 8 0 15 4 15 9
0 6 -9 8 -20 6 -11 -2 -20 0 -20 6 0 5 9 9 20 9 27 0 26 18 -2 22 -24 3 -34
36 -13 44 18 7 14 54 -5 54 -19 0 -21 51 -2 58 22 7 13 24 -10 17 l-23 -7 23
21 c27 27 28 34 2 26 -11 -4 -20 -2 -20 4 0 6 7 11 15 11 11 0 15 11 15 36 0
30 -3 35 -17 30 -16 -6 -16 -6 0 12 9 10 16 21 15 23 -2 2 3 -2 10 -10 6 -8
10 -23 7 -32z m-4475 -1 c-5 -18 -11 -64 -15 -103 -4 -38 -18 -124 -31 -190
-16 -76 -21 -121 -14 -123 12 -4 14 -42 1 -42 -8 0 -26 -97 -35 -185 -3 -22
-10 -69 -16 -105 -12 -70 -11 -91 5 -102 6 -4 -7 -8 -29 -8 -32 0 -37 3 -31
18 4 9 8 26 10 37 2 11 8 44 14 73 6 28 8 67 5 85 -5 26 -3 29 6 17 9 -12 10
-6 6 29 -4 26 -2 49 5 57 6 8 9 21 5 29 -4 11 -2 14 6 9 8 -5 9 5 5 37 -4 26
-3 36 2 24 7 -16 10 -11 15 25 4 25 19 106 32 180 13 74 27 162 30 195 7 64
10 75 24 75 5 0 5 -15 0 -32z m380 -285 c-58 -474 -63 -508 -71 -528 -20 -50
-6 115 36 411 51 360 57 394 62 377 2 -6 -10 -123 -27 -260z m-140 170 c0 -5
-7 -17 -15 -27 -8 -11 -15 -27 -15 -35 1 -9 7 -2 15 14 8 17 13 21 11 10 -3
-11 -10 -62 -17 -112 -6 -51 -16 -90 -20 -87 -9 5 -14 -14 -23 -79 -3 -22 -1
-35 5 -32 5 4 9 1 9 -4 0 -6 -5 -11 -11 -11 -7 0 -9 -10 -5 -25 4 -14 2 -25
-3 -25 -5 0 -11 -18 -13 -39 -2 -22 0 -37 4 -35 5 3 8 -2 8 -10 0 -8 -4 -17
-8 -20 -11 -7 -2 -86 10 -86 6 0 7 -15 3 -37 -3 -21 -6 -46 -6 -55 0 -22 -13
-23 -33 -2 -15 14 -16 14 -16 0 0 -9 5 -16 10 -16 6 0 10 -7 10 -15 0 -8 -6
-15 -14 -15 -8 0 -20 -2 -28 -3 -7 -2 -10 -2 -5 0 15 9 6 23 -14 23 -18 0 -20
4 -14 48 12 86 25 122 43 122 15 0 22 36 56 273 21 149 41 275 43 280 2 4 11
7 19 7 8 0 14 -3 14 -7z m2975 -194 c25 -348 28 -419 16 -419 -6 0 -11 16 -11
35 0 19 -5 35 -11 35 -6 0 -9 -7 -5 -15 3 -8 1 -25 -4 -37 -11 -28 -11 -25
-16 111 -2 57 -8 119 -14 139 -6 22 -6 40 0 47 5 6 6 63 2 138 -4 69 -4 123
-1 119 6 -6 28 -310 31 -430 1 -29 5 -55 10 -59 6 -3 7 17 4 48 -3 30 -8 122
-11 204 -3 83 -8 179 -11 215 -4 36 -3 62 0 59 4 -4 13 -90 21 -190z m-2576
94 c-11 -115 -19 -201 -24 -268 -3 -49 -3 -54 5 -25 5 19 12 67 16 105 4 39 9
63 11 55 2 -8 0 -56 -4 -105 -6 -66 -5 -97 4 -115 15 -30 17 -94 4 -119 -6
-10 -13 -41 -17 -71 l-7 -53 29 7 c16 4 30 8 31 9 1 1 13 112 27 247 37 347
34 330 62 330 21 0 24 -5 24 -40 0 -31 3 -38 15 -34 13 5 14 -3 8 -57 -3 -35
-10 -67 -15 -70 -5 -3 -13 -55 -18 -115 -18 -209 -23 -244 -31 -244 -5 0 -9
-4 -9 -10 0 -5 14 -10 32 -10 72 0 15 -8 -99 -14 l-122 -7 4 68 c3 75 12 131
27 180 8 28 6 36 -15 57 -16 16 -24 34 -22 48 5 43 18 83 29 91 8 5 7 10 -3
16 -11 7 -11 10 1 17 8 5 18 24 21 43 6 29 5 32 -8 21 -10 -8 -15 -9 -15 -2 0
6 7 15 16 20 13 7 16 19 11 51 -3 23 -1 39 4 35 5 -3 9 4 9 15 0 12 6 21 13
21 10 0 11 -17 6 -77z m-1543 -321 c-19 -141 -65 -333 -83 -352 -13 -13 -14
-11 -11 15 3 28 1 30 -29 27 -18 -1 -33 -1 -33 1 0 2 7 50 16 108 17 119 34
153 70 146 22 -4 25 0 30 35 4 22 14 47 23 55 9 9 15 18 13 20 -5 5 9 65 15
60 2 -3 -2 -54 -11 -115z m6118 -12 c5 -25 15 -49 22 -55 6 -5 21 -51 31 -100
18 -81 18 -94 5 -113 -11 -16 -24 -22 -53 -22 -21 0 -40 4 -43 8 -5 8 -66 299
-66 314 0 8 37 16 70 14 21 -1 26 -8 34 -46z m-6476 -75 c4 -4 -23 -170 -39
-237 -11 -47 -11 -48 -51 -48 l-40 0 7 53 c8 65 34 217 41 236 3 10 14 11 42
6 20 -4 38 -8 40 -10z m488 -28 c3 -8 -4 -65 -16 -127 -11 -62 -20 -115 -20
-117 0 -2 -16 -3 -36 -3 -33 0 -36 2 -31 23 4 12 13 60 21 107 23 125 25 130
52 130 14 0 27 -6 30 -13z m3948 -232 c15 -19 24 -40 21 -45 -3 -6 -2 -10 3
-10 13 0 7 -41 -8 -50 -10 -6 -12 -28 -7 -96 4 -49 10 -90 14 -91 5 -2 7 -21
5 -43 -2 -21 3 -74 11 -117 26 -131 30 -193 15 -193 -9 0 -10 -2 -2 -8 7 -4
15 -33 19 -65 l7 -57 -31 0 c-26 0 -31 4 -31 24 0 25 -29 377 -53 644 -14 157
-10 169 37 107z m1521 -155 c94 -11 189 -22 213 -26 l43 -5 -3 -57 c-3 -54 -2
-57 22 -60 l24 -4 -24 -14 c-21 -12 -22 -14 -5 -12 14 2 21 -4 23 -20 2 -13 8
-20 14 -16 7 4 8 2 4 -4 -4 -7 -16 -12 -27 -12 -24 0 -25 -16 -1 -22 30 -7 57
14 54 42 -2 14 -8 30 -14 37 -7 9 -2 10 24 3 18 -6 34 -10 35 -10 1 0 -1 10
-6 23 -4 12 -11 42 -15 66 l-7 44 62 -7 c34 -3 64 -8 67 -10 6 -7 51 -219 52
-246 0 -19 -3 -21 -12 -12 -7 7 -33 12 -59 12 -29 0 -51 6 -59 15 -9 10 -32
15 -76 15 -36 0 -64 4 -64 10 0 6 -7 10 -15 10 -8 0 -15 6 -16 13 0 10 -2 10
-6 0 -5 -15 -49 -17 -58 -4 -3 5 -41 13 -85 17 l-79 7 -17 56 c-21 74 -28 81
-84 81 -62 0 -115 11 -100 20 9 5 6 18 -9 48 -27 53 -26 55 7 48 15 -3 104
-14 197 -26z m551 -70 c6 0 17 -27 23 -61 7 -34 14 -59 17 -56 3 2 0 24 -5 48
-16 68 -15 72 16 64 16 -4 29 -8 31 -9 1 -2 11 -33 21 -69 l18 -65 -26 -5
c-14 -3 -46 -4 -71 -4 l-44 2 -11 55 c-6 30 -15 68 -19 84 -6 26 -5 28 16 22
13 -3 28 -6 34 -6z m-1841 -92 c12 -58 84 -362 96 -402 6 -22 12 -46 14 -55 2
-9 20 -79 39 -156 20 -77 36 -141 36 -142 0 -2 -16 -3 -36 -3 -31 0 -36 3 -31
20 3 11 2 20 -2 20 -4 0 -8 6 -9 13 -3 38 -14 91 -21 106 -12 22 -31 138 -36
217 -2 36 -8 70 -11 76 -4 6 -8 23 -9 37 -2 14 -6 40 -9 56 -4 17 -11 48 -16
70 -5 22 -10 55 -10 74 0 29 -2 32 -15 21 -12 -10 -15 -10 -15 3 0 9 5 19 11
22 13 8 6 30 -9 31 -25 3 -27 5 -12 14 26 17 38 11 45 -22z m-1872 -135 c4 -3
2 -12 -4 -19 -7 -8 -6 -14 2 -20 8 -4 9 -3 5 4 -13 21 5 12 31 -15 17 -18 24
-22 20 -10 -11 29 36 21 71 -14 17 -17 36 -28 41 -25 5 4 13 2 16 -4 4 -7 -5
-10 -25 -8 -17 1 -34 6 -36 10 -3 5 -10 6 -15 2 -19 -11 23 -30 62 -29 39 1
42 -9 4 -17 -11 -2 -19 -9 -18 -16 5 -21 -55 8 -61 31 -3 12 -4 23 -3 24 2 3
-75 43 -83 43 -3 0 2 -5 10 -10 11 -7 11 -10 2 -10 -7 0 -10 -5 -7 -10 4 -6
11 -8 16 -5 5 4 9 -3 9 -14 0 -13 8 -21 22 -23 14 -2 24 -11 25 -23 1 -16 1
-16 -3 -2 -6 18 -34 24 -34 7 0 -5 5 -10 11 -10 5 0 7 -5 4 -10 -9 -15 -25 -2
-25 19 0 13 -8 19 -25 19 -13 0 -22 -4 -19 -9 3 -5 12 -9 21 -9 13 0 13 -3 3
-15 -7 -8 -16 -15 -21 -15 -5 0 -9 7 -9 15 0 14 -11 19 -37 16 -7 -1 -13 3
-13 9 0 5 -8 10 -17 10 -14 0 -15 -2 -4 -9 7 -5 11 -13 8 -18 -3 -5 7 -7 25
-5 21 3 29 1 24 -6 -4 -6 -13 -9 -21 -5 -9 3 -15 -1 -15 -11 0 -10 5 -13 17
-9 11 5 14 3 8 -6 -5 -8 -20 -11 -44 -7 -20 3 -30 3 -23 0 6 -3 12 -10 12 -16
0 -6 -6 -5 -15 2 -12 10 -13 16 -4 26 6 8 8 14 3 15 -5 0 -17 2 -26 4 -23 4
-23 -6 2 -38 18 -23 19 -25 2 -32 -33 -13 -62 -15 -62 -5 0 6 -4 9 -9 5 -17
-10 -21 12 -6 31 12 15 14 15 9 2 -6 -17 27 -35 46 -23 17 10 11 25 -7 19 -15
-5 -15 -4 -3 5 12 8 12 11 -3 17 -9 3 -15 10 -12 14 3 5 -3 13 -12 19 -16 9
-15 10 7 11 23 1 24 2 8 14 -10 7 -18 15 -18 18 0 4 47 3 58 -1 1 -1 5 -1 8 0
4 0 11 -5 15 -13 7 -10 9 -9 9 5 0 9 -7 17 -15 17 -8 0 -15 7 -15 15 0 8 -5
15 -12 15 -23 0 2 13 29 15 49 3 53 5 53 20 0 8 5 15 10 15 23 0 7 -29 -22
-39 -17 -6 -29 -13 -26 -16 2 -3 26 2 53 11 l48 17 -24 17 c-20 16 -21 20 -10
34 14 17 24 20 34 9z m-1014 -332 c24 -18 24 -20 12 -77 -6 -33 -16 -99 -20
-147 -5 -49 -13 -92 -17 -96 -197 -166 -204 -171 -109 -73 44 45 74 82 66 82
-10 0 -12 10 -7 38 15 99 18 118 20 132 8 51 20 146 18 153 -3 12 12 7 37 -12z"/>
<path d="M6078 2734 c-16 -8 -28 -18 -28 -21 0 -4 13 -72 30 -152 16 -80 57
-288 90 -461 33 -173 79 -409 102 -525 23 -115 42 -218 42 -228 0 -20 30 -30
72 -25 24 2 29 7 26 28 -3 27 -36 188 -133 640 -125 589 -147 696 -151 724 -4
36 -14 40 -50 20z"/>
<path d="M1410 4663 c-1 -5 -2 -30 -4 -58 -1 -27 -6 -62 -10 -77 -5 -17 -4
-28 1 -28 6 0 17 24 24 53 14 50 15 51 28 28 10 -19 11 -35 1 -83 -6 -33 -9
-62 -6 -66 3 -3 9 9 12 26 4 18 10 32 15 32 12 0 30 -36 25 -52 -12 -39 -15
-68 -7 -68 5 0 15 26 21 58 7 31 15 62 18 67 4 6 7 18 8 28 1 9 3 19 4 22 1 3
3 13 4 23 1 9 5 23 9 29 4 7 10 26 12 43 4 32 -11 40 -33 18 -9 -9 -12 -9 -12
0 0 13 -110 18 -110 5z"/>
<path d="M3611 4572 l-1 -98 26 1 c30 2 57 32 49 53 -8 22 5 35 21 21 12 -10
13 -9 8 5 -5 13 2 16 47 17 l54 1 -40 10 c-22 5 -54 7 -71 5 -43 -7 -62 6 -41
28 17 17 57 13 57 -6 0 -14 33 -7 47 11 18 23 -1 47 -39 48 -18 0 -38 -4 -44
-9 -8 -7 -14 -6 -19 1 -3 5 -17 10 -30 10 -23 0 -23 -2 -24 -98z"/>
<path d="M6081 4623 c4 -27 37 -163 73 -303 37 -140 83 -322 104 -405 26 -105
38 -140 40 -118 3 35 55 88 74 77 8 -5 9 1 5 17 -4 13 -47 184 -97 379 -49
195 -93 365 -96 378 -6 19 -13 22 -59 22 l-52 0 8 -47z"/>
<path d="M6204 4643 c4 -15 16 -47 28 -71 11 -23 18 -51 15 -62 -5 -20 -2 -37
33 -160 12 -41 30 -106 40 -145 23 -86 63 -203 54 -155 -4 19 -7 50 -7 68 0
17 -5 32 -9 32 -5 0 -9 10 -8 23 4 41 0 58 -10 52 -7 -4 -9 4 -5 24 3 16 0 42
-6 58 -6 15 -17 53 -25 83 -54 226 -69 275 -88 278 -16 3 -18 0 -12 -25z"/>
<path d="M6260 4658 c1 -19 11 -59 75 -278 31 -107 64 -226 75 -265 10 -38 37
-136 59 -217 27 -95 39 -157 35 -176 -7 -34 6 -47 29 -29 15 11 14 23 -14 147
l-31 134 22 18 c12 10 28 18 36 18 17 0 19 -51 2 -68 -9 -9 -8 -12 7 -12 18 0
18 0 -1 -16 -19 -15 -18 -15 4 -11 26 6 28 -1 5 -20 -17 -13 -16 -13 6 -11 35
4 51 -44 25 -74 -19 -21 -19 -21 3 -16 13 4 26 2 29 -3 3 -5 11 -6 17 -2 7 4
-1 -9 -18 -29 -16 -19 -34 -35 -39 -34 -12 1 -16 -28 -5 -45 4 -7 12 -10 16
-5 4 5 2 11 -5 13 -10 4 -7 9 7 20 26 18 61 8 61 -17 0 -29 38 -13 63 26 12
19 27 34 32 34 6 0 19 14 30 30 11 16 25 30 30 30 14 1 116 141 139 190 4 9 5
7 2 -6 -3 -17 1 -20 20 -16 18 3 24 11 24 29 0 20 -3 23 -13 15 -7 -6 -23 -9
-35 -5 -20 5 -73 -13 -112 -37 -8 -6 -24 -14 -35 -19 -11 -5 -32 -21 -47 -36
-20 -20 -28 -23 -28 -12 0 14 77 70 166 121 25 14 34 26 34 45 0 14 -4 22 -8
16 -10 -14 -42 -18 -42 -6 0 5 8 12 19 16 29 9 23 36 -89 383 l-63 192 -158 0
-159 0 0 -32 c0 -18 21 -103 45 -188 53 -181 60 -209 47 -195 -5 6 -21 53 -36
105 -14 52 -41 142 -60 200 l-33 105 -67 3 c-49 2 -66 0 -66 -10z m545 -488
c20 -60 37 -113 37 -117 1 -5 -28 -24 -63 -44 l-64 -37 -12 40 c-11 34 -10 43
7 74 20 34 9 49 -18 22 -14 -14 -17 -11 -26 27 l-6 30 15 -25 c11 -19 14 -21
15 -7 0 9 5 17 10 17 6 0 10 5 10 11 0 6 -7 9 -14 6 -16 -6 -12 16 7 41 5 7 7
15 3 19 -8 8 34 53 50 53 7 0 29 -49 49 -110z"/>
<path d="M6780 4660 c0 -5 11 -34 24 -63 13 -30 53 -145 90 -257 37 -111 75
-219 86 -239 l19 -36 1 101 c0 104 -16 176 -61 270 -23 48 -25 71 -3 30 11
-20 19 -25 26 -18 12 12 -24 136 -55 190 -18 30 -23 32 -73 32 -30 0 -54 -4
-54 -10z"/>
<path d="M532 2667 c-20 -100 -54 -252 -112 -512 -61 -274 -110 -506 -116
-549 -7 -45 -6 -46 25 -52 33 -7 43 -33 14 -35 -11 0 -13 -3 -5 -6 6 -2 12
-11 12 -19 0 -9 -4 -13 -9 -9 -5 3 -12 1 -16 -5 -3 -5 -1 -10 4 -10 6 0 11
-13 11 -30 0 -22 -5 -30 -17 -31 -11 0 -13 -3 -5 -6 23 -9 12 -31 -18 -38 -33
-7 -58 -40 -37 -49 8 -4 5 -11 -10 -22 -34 -25 -28 -34 22 -34 l44 0 16 52 c8
29 22 90 31 137 15 87 47 240 83 406 39 179 172 771 182 808 8 31 7 43 -6 64
-9 13 -19 22 -23 19 -3 -3 -15 0 -27 8 -21 14 -22 12 -43 -87z"/>
<path d="M1482 897 c-6 -6 -15 -49 -22 -95 -13 -94 -18 -112 -32 -112 -6 0 -8
7 -5 14 4 9 1 13 -7 10 -14 -5 -35 -79 -42 -146 -2 -23 -10 -77 -17 -118 -7
-41 -13 -90 -12 -107 0 -18 -3 -33 -8 -33 -5 0 -7 -20 -5 -45 2 -25 -1 -46 -5
-48 -5 -1 -11 -25 -13 -52 -2 -28 -4 -50 -5 -50 -1 0 -2 -14 -4 -31 -1 -17 -5
-42 -8 -56 l-7 -26 100 -1 c59 -1 100 3 100 9 0 5 -8 7 -17 4 -17 -5 -17 -5
-1 8 12 11 21 49 32 149 9 74 25 202 36 284 11 83 20 151 20 153 0 1 -6 2 -14
2 -24 0 -28 17 -17 76 8 39 8 61 1 69 -6 7 -8 30 -4 52 5 32 3 41 -11 47 -12
4 -15 13 -11 31 7 27 -5 33 -22 12z"/>
<path d="M463 310 c-6 -24 -12 -25 -28 -4 -10 15 -14 14 -38 -12 -15 -16 -27
-33 -27 -37 0 -5 -7 -16 -17 -25 -15 -15 -15 -17 7 -22 23 -5 23 -6 -10 -44
-25 -28 -34 -48 -35 -79 -1 -23 -6 -52 -10 -65 -7 -20 -4 -22 34 -22 34 0 41
3 41 20 0 15 7 20 25 20 14 0 25 -4 25 -10 0 -5 -7 -10 -15 -10 -8 0 -15 -4
-15 -10 0 -5 9 -10 21 -10 15 0 20 6 18 23 -1 12 1 29 4 37 15 38 27 99 27
139 0 42 -1 43 -18 28 -25 -23 -33 -21 -24 4 4 11 19 26 32 32 16 8 25 22 27
40 2 31 -16 37 -24 7z"/>
<path d="M232 188 c-12 -57 -24 -122 -27 -146 l-5 -42 35 0 c34 0 36 2 35 33
0 56 8 171 15 215 7 38 6 42 -12 42 -17 0 -23 -14 -41 -102z"/>
</g>
</svg>
